<?xml version="1.0" encoding="utf-8"?>
<!-- Generator: Adobe Illustrator 24.0.1, SVG Export Plug-In . SVG Version: 6.00 Build 0)  -->
<svg version="1.1" id="Layer_1" xmlns="http://www.w3.org/2000/svg" xmlns:xlink="http://www.w3.org/1999/xlink" x="0px" y="0px"
	 viewBox="0 0 1636.5 1274.3" style="enable-background:new 0 0 1636.5 1274.3;" xml:space="preserve">
<style type="text/css">
	.st0{opacity:0.15;}
	.st1{fill:#EEDE21;}
	.st2{fill:#FFEF36;}
	.st3{fill:#DAC41B;}
	.st4{fill:#EAD32C;}
	.st5{fill:#B29D15;}
	.st6{fill:#BFA922;}
	.st7{fill:#A38A11;}
	.st8{fill:#AF951B;}
	.st9{fill:#BFB49F;}
	.st10{fill:#F5A511;}
	.st11{fill:#E1920E;}
	.st12{fill:#FFFB4D;}
	.st13{fill:#FDF72F;}
	.st14{fill:#A96C0A;}
	.st15{fill:#9B6008;}
	.st16{fill:#FFDB50;}
	.st17{fill:#F57B11;}
	.st18{fill:#FEC30C;}
	.st19{fill:#FEA30C;}
	.st20{fill:#262420;}
</style>
<g class="st0">
	<path class="st1" d="M932,439.7c-32.2-23.5-99.9-54-140.4-35.8c-30,13.5-13,56.5-9.9,79.8c4.8,36.5,10.9,71.7,23.8,106.3
		c4.1,11,8.8,22.1,10.6,33.7c3.9,26.2-7.3,52.1-18.3,76.2c-13.1,28.9-38.7,12.3-58.8,31.9c-27.5,26.8-58,55.5-76.5,89.7
		c-8.4,15.4-18.4,30.4-23.8,47.4c-3,9.4-11.9,22.1-11.1,32c1.7,19.9,42.5,34.2,57.8,42.1c37.7,19.3,68.3,45.1,108.3,59.7
		c9.4,3.4,18.9,6.6,28.7,8.2c12.4,1.9,25.1,1.2,37.8,0.4c9.8-0.6,30.3-4.7,39.3,0.6c11.6,6.8,7.8,22.9,8.1,36.4
		c1,33.5,6.4,67,15.8,99.2c1.4,4.7,4.1,10.2,9,9.9c1.9-0.2,3.7-1.3,5.6-1.2c4.9,0.2,5.9,7.1,4.9,11.9c-1.8,8.2-4.9,16.1-9.4,23.2
		c-3.4,5.4-7.6,11-6.7,17.3c1.7,12.9,12.9,11,20.2,3c4.4-4.9,7.5-10.9,12.6-14.9c11.6-9.2,28.3-4.9,42.9-2.5
		c34.5,5.9,47.5-0.8,74.7-20.9c21.3-15.8,43.1-31.9,58.6-53.8c8.8-12.4,7.5-18.7,23.1-16c10.3,1.8,19.4,9.4,28.1,16.6
		c4.6,3.8,9,7.5,13.6,10.3c17.6,10.9,35.1,22.3,53.6,31.9c32.5,16.8,59.6,28.7,95.7,27.3c22.8-0.9,44.6-8.3,67.2-10
		c14-1,37.9,5.3,41.4-12.8c2.1-11.2-10.7-25.7-10.6-37.8c0.1-39.6,33.9-70.1,35.1-109.7c0.7-23.5,1.1-51.6-5.6-74.1
		c-7.4-25-20-48.4-28-73.2c-8.1-25.3-5.1-32.4,17.1-49.5c32-24.7,66.3-64.6,90.3-97.3c10.9-15,21.7-32.8,2.6-44.4
		c14.6-19.9,10.2-44.5,17.4-67c0.6-1.9,1.2-3.7,1-5.6c-0.8-5.3-7.8-6.4-13.1-6.9c-19.3-1.5-31.4-14-43.4-26.4
		c-10.2-10.6-20.4-21.1-34.9-24.8c-15.4-3.9-32.5,3.9-47,7.4c-11.5,2.8-24.8,2.3-35.7,5.5c-7.9,2.3-17,12.3-26,7.2
		c-11.4-6.3-3.9-25.2-4.9-35.1c-1.6-16.1-7.3-33.4-9.9-49.7c-6.4-41.4-20.7-81.5-41.7-117.7c-3.3-5.6-6.8-11.3-11.5-15.9
		c-2.6-2.5-6.4-4.1-10.1-5.7c-4.1-1.8-8-3.4-10.2-5.9c-4-4.7-2.3-10-4.7-15.4c-5.5-12.8-13.9-21.7-24.9-30.1
		c-3.7-2.8-7.6-6.6-11.6-10.6c-10.9-10.8-22.9-22.5-36.1-16.4c-20.9,9.7-33,31.5-49.2,47.8c-32.6,32.7-85.7,47.3-102.5,90.3
		c-7.9,20-11.2,48.6-32.6,51.6c-7.6,1.1-15.3-2-22.9-1.5c-7.5,0.5-14.4,4.6-21.9,5.8C963.9,465.1,947.3,450.9,932,439.7"/>
	<path class="st2" d="M932,439.7c-32.2-23.5-99.9-54-140.4-35.8c-30,13.5-13,56.5-9.9,79.8c4.8,36.5,10.9,71.7,23.8,106.3
		c5.6,15.1,11,28.8,10.4,45c-0.6,15.6-1.7,23.5,5.2,39c14.9,33.6,38.7,63,65.3,88.2c34.4,32.7,74.2,58,111.1,87.6
		c14.1,11.3,16.5,15.7,16.9,33.1c0.4,16.9,7,39.5,0.8,55.6c-8.6,22.5-39.8,25.9-55.5,44.2c-4.3,5-7.4,11.2-12.5,15.4
		c-10.4,8.6-33.5,5.9-40,18.5c-0.5,1.1,1.6,15.5,1.7,17.6c0.2,9.4-1.2,18.8-0.6,28.3c1.9,28.8,7.1,57.2,15.1,84.8
		c1.4,4.7,4.1,10.2,9,9.9c1.9-0.2,3.7-1.3,5.6-1.2c4.9,0.2,5.9,7.1,4.9,11.9c-1.8,8.2-4.9,16.1-9.4,23.2c-3.4,5.4-7.6,11-6.7,17.3
		c1.7,12.9,12.9,11,20.2,3c4.4-4.9,7.5-10.9,12.6-14.9c11.6-9.2,28.3-4.9,42.9-2.5c34.5,5.9,47.5-0.8,74.7-20.9
		c21.3-15.8,43.1-31.9,58.6-53.8c15.4-21.7,36.1-39.7,36.7-68.1c0.6-28.2-14.6-56.6-19-84.3c-3-18.9,6.8-22.2,19.6-36.7
		c7.8-8.9,14.3-15.7,25.9-19.7c14.6-5,30.4-5.6,45.1-10.4c16.9-5.5,31.6-16.3,45.3-27.7c3.6-3,7.2-6.1,11.6-8
		c5.7-2.6,12.2-2.8,18.4-3.1c42.2-2.2,100.9-7.1,136.8-30.4c39.7-25.8,72.8-68.1,100.5-105.8c10.9-15,21.7-32.8,2.6-44.4
		c14.6-19.9,10.2-44.5,17.4-67c0.6-1.9,1.2-3.7,1-5.6c-0.8-5.3-7.8-6.4-13.1-6.9c-19.3-1.5-31.4-14-43.4-26.4
		c-10.2-10.6-20.4-21.1-34.9-24.8c-15.4-3.9-32.5,3.9-47,7.4c-33.2,8.2-65.2,5.4-97,19.9c-29.9,13.6-58.8,34.3-92.8,35
		c-16.1,0.4-31.9-4.1-46.9-9.7c-49.9-18.4-93.8-49.2-137.1-79.4C1022.1,493.5,974.1,470.4,932,439.7"/>
	<path class="st3" d="M1170.8,431.7c8.7,7.1,9.9,21.2,9.8,33c-0.1,11.9,1,26,9.8,33.3c0.8,0.6,1.7,1.2,2.6,1.8
		c-6.6,4.9-16,5.2-23.5,1.9c-2.6-2.5-5.3-5.2-7.9-8c-1.1-1.2-2.4-2.5-3.5-3.6c-2.5-6.2-3.4-13.8-8.1-17.6c-0.7-0.6-1.5-1.1-2.4-1.4
		c-2.4-1.1-5.1-1.1-7.7-1.4c-3.9-0.6-7.3-2-10.6-4.1c-0.3-0.2-0.6-0.4-0.9-0.6c-0.7-0.5-1.4-1-2.2-1.4c-0.5-0.4-1.1-0.8-1.6-1.2
		c-4.3-3.5-8.2-7.9-12.2-12.2c-3.9-4.3-7.9-8.6-12.1-12.1c-4.4-3.6-9.2-6.3-14.7-7.1c-0.4-0.5-0.7-1.1-1.1-1.6
		c-3.3-4.6-6.4-9.6-6.4-15.3c-0.1-5.6,4-11.6,9.5-11.7c2.7,0,5.3,1.3,7.7,2.7c4.8,2.8,9.3,6,13.6,9.4c15.6,12.7,27.7,29.7,34.5,48.6
		c4.6-10.2,9.7-20.3,15.3-30.1c1-1.7,2-3.4,3.8-4.1c1.8-0.6,3.6,0,5.3,0.9C1168.8,430.3,1169.8,431,1170.8,431.7 M1233.7,411.9
		c7.3,35.1,14.6,70.2,21.9,105.3c-0.6-0.4-1.1-0.9-1.8-1.3c-1-0.8-1.9-1.6-2.6-2.4c-12.3-12.8-19.4-30.4-19.6-48.1
		c-8-4.7-18.2,1.9-23.1,9.8c-4.9,7.9-7.5,17.5-14.5,23.6c-0.2,0.2-0.4,0.4-0.6,0.5c8.1-22.4,16.3-44.8,24.4-67.2
		C1220.9,423.7,1225.1,414.2,1233.7,411.9 M1282.5,435.1c-0.8,1,11.6,25.7,12.7,28.8c3.5,10.2,6.2,20.8,7.9,31.6
		c3.4,22-1.4,43.9,1.7,65.7c0.7,5.1,1.1,9.7,1.1,13.9c-1.6,0.3-3.2,0.4-4.8,0.2c-0.4-0.6-0.7-1.3-1.1-1.9
		c-3.2-5.3-7.2-9.4-11.6-13.1c-2-1.7-4.2-3.3-6.4-4.8c-0.4-1.1-0.8-2.2-1.1-3.3c-3.9-11-7.8-22.1-11.6-33.1
		c3-10.5,4.7-21.4,4.9-32.4C1274.5,469,1271.7,449.3,1282.5,435.1"/>
	<path class="st4" d="M1359.9,835.6c-5.8,1.9-11.7,3.2-17.7,4c2.5-3.7,5-7.6,7-11.6C1352.9,830.3,1356.5,832.8,1359.9,835.6
		 M1401.4,802.7c3.7,3,6.8,6.5,9.1,10.8c-17.3-1.1-34.7-0.8-52,0.7c2.9-5.5,3.9-11.6,1.4-19.2c-1.1-3.1-2.8-5.9-5-8.4
		c6,1.1,12.2,2.1,18.1,3.4C1383.2,792.4,1393.6,796.3,1401.4,802.7 M1414.1,715.9c2.6,2.1,4.2,5.5,3.3,8.6c-1.5,4.9-7.9,6.1-13,6.6
		c-22.3,2.3-44.2,8.4-64.4,18.1c13.4,1.1,26.6,5.6,38,12.9c-11.6,7.5-24.8,12.8-38.5,15.4c-1.7-11.3-6.4-23.5,2-29.9
		c3-2.3,6.9-3,10.3-4.5c10.6-4.7,14.8-18.5,11.1-29.1c12.7-1.2,25.6-1.6,38.4-1.2c3.9,0.1,7.9,0.4,11.2,2.2
		C1413.2,715.2,1413.7,715.6,1414.1,715.9 M1443.8,661.6c-25.7,13.3-55,20.6-81.1,32.5c0.4-7.1-3.5-15.3-9.6-20.2
		c-0.4-0.4-0.8-0.6-1.1-0.9c-0.1-0.6-0.4-1.1-0.7-1.4c-0.1-0.1-0.1-0.1-0.2-0.2c-4-2.4-7.9-4.8-11.9-7.1c10.6-2,21.2-3.8,31.9-5.4
		C1395.2,655.4,1420.6,653.4,1443.8,661.6"/>
	<path class="st3" d="M1163.1,978.7c0.5,0.6,1.1,1.2,1.4,1.9c1.7,2.7,2.5,6,3.1,9.2c-2-3.2-4.4-6.3-7-9
		C1161.4,980,1162.2,979.3,1163.1,978.7 M1270.6,971.1c8.3,20.3,14.1,41.6,16.4,63.3c3.5,32.7-1.3,66.8-16.7,96
		c-24.1-47-26.6-102.8-50-150.2c-0.4-1-1.1-1.9-1.7-2.9c4.1-3.2,8.8-5,14.2-4.7c7,0.5,13.2,4.9,20.3,5.3
		C1259.6,978.3,1265.4,975.3,1270.6,971.1 M1297.1,941.9c24.2,34,44.9,70.3,61.7,108.4c-30.7-25.2-51.7-59.9-76.2-91.3
		C1287.6,953.5,1292.5,947.8,1297.1,941.9 M1318.6,900.9c1.4,2.1,2.7,4.1,4,5.7c16.7,21.5,34,42.5,51.8,63.1
		c20.1,23.2,41,45.8,62.6,67.7c-9.4-5.6-18.4-12.1-26.9-19.1c-17.6-14.3-33.4-30.8-49.4-47.4c-15.9-16.5-31.8-33-49.2-47.2
		c-0.6-0.5-1.2-1.1-1.9-1.6c0.2-0.4,0.4-0.7,0.4-1C1313,914.7,1314.9,907.1,1318.6,900.9"/>
	<path class="st3" d="M871.4,929.1c1.1,1.8,2.1,3.7,3.1,5.6c2,3.7,4.9,7.4,8.2,10.1c0.7,0.6,1.4,1.1,2.2,1.6c-1,0.3-2,0.5-3,0.7
		c-16.9,4-36.3,5.6-50-4.9c5.7-7.1,12.3-13.4,19.4-19c1.6-0.4,3.1-0.6,4.7-0.7C860.9,925,866.1,927.2,871.4,929.1 M927,937.4
		c1,0.8,1.9,1.7,2.6,2.6c-6.1-0.9-12.3-0.6-18.4,0.3c0.1-0.1,0.2-0.1,0.3-0.2c2.7-2.1,5.6-4.1,8.6-5.8c2,0.4,4,1.1,5.7,2.1
		C926.2,936.8,926.6,937.1,927,937.4 M841.9,862.4c-4,3.3-7.9,6.5-11.9,9.8c-6.3,4.1-11.8,9.1-15.6,15.3c-7.5,1.6-15,3.3-22.3,5
		c-21.4,5-42.9,10.1-64.4,15.1c-14,3.3-28.1,6.5-42.5,6.3c2.9-6.7,9.9-10.6,16.4-13.9c31.9-16,65.5-28.8,99.9-38.2
		c-0.4,1.6-0.1,3.1,1,4.2c0.1,0.1,0.3,0.3,0.4,0.4c1.1,0.9,2.6,1.2,4.1,1.4C818.7,869.5,830.3,866.2,841.9,862.4 M966,948.1
		c-12.6,9.4-27.5,15.6-43.1,17.8c-9.5,1.3-20.3,0.7-27.6-5.2c-0.8-0.6-1.6-1.4-2.3-2.1c10.9-8.6,23.8-14.7,37.5-17.4
		c0.4,0.6,1,1.2,1.4,1.8c1.5,1.9,3,4,4.9,5.5c0.3,0.2,0.5,0.4,0.7,0.5C945.6,954.7,956.4,950.6,966,948.1L966,948.1 M805.4,802
		c-1.6,8-3.2,16.1,2,21.6c0.4,0.4,0.7,0.6,1.1,1c2.5,2,5.6,3.1,8.7,4c1.1,0.4,2.2,0.7,3.4,1.1c-25.6-1.6-51.4-0.3-76.7,4
		c-12.9,2.1-26.6,4.9-38.4-0.7c17.1-12.3,38.6-24.7,61.7-34.1c2.2,1.5,4.5,2.7,7.1,3.6C784.3,806.2,794.9,804.9,805.4,802"/>
	<path class="st4" d="M921.3,564c-7.3,5.2-20.2,5-29.6,1.4c-6.2-2.4-12.8-5.5-19.3-7.3c-4.6-8-8.6-16.4-11.7-25.1
		c-1.6-4.4-1.5-11.4,3.3-11.6c4.9,4.4,9.9,8.7,15,12.9C892.3,545.2,906.5,555.1,921.3,564 M906.3,512.9c-3.1,6.1-3.8,13.8-1.5,20.2
		c3.3,9.4,10.4,16.8,18.4,23.1c1,0.8,1.9,1.5,2.8,2.3c-1,2.1-2.5,3.9-4.3,5.3c-13.3-16.3-26.7-32.7-40.1-49.1
		c-6.2-7.6-12.8-17.1-9.5-26.3C883.9,495.9,895.3,504.1,906.3,512.9 M940.5,490.7c-2.7,4.9-5.6,9.7-10.9,11.2
		c-3.3,0.9-6.7,0.4-10.1,0.7c-1.3,0.2-2.6,0.5-3.7,1c-19.1-20-35.7-41.9-47.6-67c7.1,6.3,14.7,12.8,22.9,19.4
		C906.5,468.5,923.2,480.9,940.5,490.7"/>
	<path class="st5" d="M1357.5,558.4c0.5,0.4,1,0.9,1.4,1.4c-13,4.1-24.2,13.2-31.3,24.8c-6.5,3.4-13.1,6.8-19.7,10.1
		c-0.6-3.9-1.7-7.6-3-11.3c0.6-2.5,1-5.4,1-8.6c7.8-1.3,15.4-7.1,22.1-11.9C1336.6,556.8,1349.5,552,1357.5,558.4"/>
	<path class="st6" d="M1327.6,584.6c-3.3,5.4-5.6,11.2-6.9,17.3c0.6,0.4,1.2,0.8,1.9,1.2c5,4.1,6.7,11.6,5.6,18.2
		c-1.2,7.3-5.2,13.9-8.6,20.4c-1.3,2.6-2.6,5.7-1.4,8.5c0.4,1,1.1,1.9,2,2.5c0.8,0.6,1.7,1.2,2.6,1.8c5.4,3.3,10.8,6.4,16.2,9.7
		c-3.1,0.6-6.1,1.2-9.2,1.9c-7.3-1.1-14.8-1.8-21.8-4.1c-2.7-0.9-5.5-2.1-7.7-4c-1.1-1-2.1-2-2.9-3.3c-5.1-8.3,1.7-18.4,6.1-27.2
		c5.1-10.1,6.4-21.7,4.5-32.8C1314.6,591.4,1321.1,588,1327.6,584.6"/>
	<path class="st7" d="M1305.9,574.9c0,3.2-0.3,6.1-1,8.6c-1.1-2.9-2.4-5.6-3.8-8.4C1302.7,575.3,1304.3,575.2,1305.9,574.9"/>
	<path class="st8" d="M1351.1,671.4c0.4,0.4,0.6,0.8,0.7,1.4c-1-0.7-1.9-1.2-2.9-1.8c-5.9-2.9-12.4-4.1-19.1-5.1
		c3.1-0.6,6.1-1.2,9.2-1.9c4,2.4,7.9,4.8,11.9,7.1C1351,671.4,1351,671.4,1351.1,671.4"/>
	<path class="st5" d="M1193.3,499.3c-0.1,0.2-0.2,0.4-0.2,0.5c-0.1-0.1-0.2-0.1-0.3-0.2C1193.1,499.6,1193.2,499.5,1193.3,499.3
		 M1269.1,519.1L1269.1,519.1c-1.4,4.9-3,9.5-4.9,14.2c-0.9-0.4-1.8-0.8-2.5-1.4c-3.4-2.8-4.9-7.9-5.7-12.4
		c-0.2-0.7-0.3-1.4-0.4-2.1C1259.9,520.3,1265,521.9,1269.1,519.1"/>
	<path class="st7" d="M1149.8,472.3c4.7,3.9,5.6,11.5,8.1,17.6c-5.8-5.8-11.9-11.4-18.3-16.5c-3.4-2.8-6.9-5.5-10.5-8.1
		c3.3,2,6.7,3.4,10.6,4.1c2.6,0.4,5.3,0.4,7.7,1.4C1148.3,471.2,1149.1,471.7,1149.8,472.3 M1231.6,465.4
		c0.2,17.7,7.3,35.3,19.6,48.2c0.8,0.8,1.7,1.7,2.6,2.4c0.5,0.4,1.1,0.9,1.8,1.3c0.2,0.7,0.3,1.4,0.4,2.1c1,4.5,2.4,9.6,5.7,12.4
		c0.7,0.6,1.5,1.1,2.5,1.4c1.9-4.6,3.6-9.4,5-14.1c3.9,11,7.8,22.1,11.6,33.1c0.4,1.1,0.8,2.2,1.1,3.3c-1.8-1.2-3.6-2.5-5.4-3.6
		c-4.1-2.6-8-5.4-11.8-8.4c-2.8-2.4-5.6-4.9-8-7.9c-6.4-7.7-9.8-16.5-16.4-22c-3.2-2.6-7.1-4.5-12.5-5c-10.8-1.1-21.3,6.2-32.2,5.6
		c-9.3-0.5-16.1-4.1-22.4-9.3c-1.2-1.1-2.5-2.1-3.7-3.3c7.5,3.4,16.9,3.1,23.5-1.9c0.1,0.1,0.2,0.1,0.3,0.2c0.1-0.2,0.2-0.4,0.2-0.5
		c0.2-0.2,0.4-0.4,0.6-0.5c7-6.1,9.6-15.7,14.5-23.6C1213.4,467.3,1223.6,460.6,1231.6,465.4"/>
	<path class="st5" d="M1085.5,430.5c5.6,7.9,12,15.2,18.9,21.9c1.1,1.1,2.3,2.2,3.4,3.3c-1.7-1.1-3.5-1.9-5.4-2.6
		c-6-2-12.2-1.5-18.4-0.1c-4.6-3.9-9.2-7.8-13.8-11.7c-4.9,6.1-10.1,12.4-17.2,15.6c0,0-0.1,0-0.1,0.1c0.3-3.2,0.5-6.4,0.8-9.6
		c0.2-2.4,0.4-4.9,1.8-7c1.6-2.5,4.5-3.8,7.1-4.9c6.5-2.8,13.4-5.7,20.6-5.3C1084.1,430.4,1084.8,430.5,1085.5,430.5"/>
	<path class="st7" d="M1100.3,437.7c4.2,3.4,8.1,7.8,12.1,12.1c3.9,4.3,7.9,8.6,12.2,12.2c0.5,0.4,1.1,0.8,1.6,1.2
		c-4.6-2.9-10.3-5.1-15.5-5.6c-0.9-0.6-1.8-1.2-2.6-1.8c-1.1-1.1-2.3-2.2-3.4-3.3c-7-6.7-13.2-14.1-18.9-21.9
		C1091.1,431.4,1095.8,434.1,1100.3,437.7"/>
	<path class="st9" d="M1446.2,845.3L1446.2,845.3C1446.2,845.3,1446.2,845.3,1446.2,845.3"/>
	<path class="st5" d="M1214,972c1.8,1.4,3.4,3.3,4.7,5.3c-6.6,5.1-11.5,13.8-14.2,22.1c-5.4,16.8-9.4,33.8-16.4,50
		c-3.8,8.9-7.7,17.9-13.3,25.9c-4.4,6.3-10.1,11.9-16.9,15.4c8.1-11.6,14.4-23.9,14.6-39.4c0.1-4.5-0.2-8.9-0.8-13.4
		c0.1-0.4,0.1-1,0.1-1.4c1.2-15.2-1.4-30.3-4-45.3c-0.1-0.5-0.2-1.1-0.3-1.6c11.7,18.3,15.2,42.1,7.4,62.6
		c16.4-18.5,19.2-44.7,24-69.3c4.1-1.9,7.6-4.9,10.1-8.6c0.9-1.2,1.7-2.6,2.5-4C1212.4,970.8,1213.2,971.4,1214,972 M1273.5,947.7
		c3.1,3.7,6.1,7.5,9.1,11.3c-0.8,0.9-1.6,1.8-2.4,2.6c-2.9,3.3-6.2,6.6-9.6,9.4c-2.1-5.1-4.3-10.1-6.7-15.2
		C1267.5,953.7,1270.7,950.9,1273.5,947.7 M1309.6,922.1c-3.4,7.1-7.7,13.5-12.4,19.7c-4.4-6.2-8.9-12.3-13.5-18.3
		c0.8-6.4,0.5-13.1-0.4-19.7C1292.5,909.3,1301.2,915.5,1309.6,922.1 M1446.6,842.8c0,0.8-0.2,1.7-0.4,2.5v0.1
		c-3.6,11.9-29.5,22-39.1,26.7c-16.7,8.4-34.8,14.5-53.6,14.9c-10.1,0.2-20.5,0.2-28.8,6.8c-2.5,1.9-4.4,4.4-6.1,7.1
		c-4.1-6.4-8.8-14.6-14.1-21.4c7.9-4.4,15-11,21.4-18.4c10.7-0.6,22.1-1.4,33.9-2.6c7,0.7,14.3,0.3,21.2-1
		c12.4-2.1,25.4-4.2,37.7-7.1C1427.8,848.4,1436.9,839.2,1446.6,842.8"/>
	<path class="st6" d="M1171.7,1038c0.6,4.5,0.9,8.9,0.8,13.4c-0.4,15.4-6.5,27.8-14.6,39.4c-1.8,1-3.6,1.8-5.6,2.4
		c10.7-10.3,14.4-25.8,17.1-40.3C1170.3,1047.9,1171.2,1042.9,1171.7,1038 M1359.9,858.4c-11.8,1.2-23.3,2-33.9,2.6
		c3.6-4.1,7.1-8.6,10.2-13c0.6,0.8,1.4,1.5,2.2,2.1c0.1,0.1,0.3,0.2,0.4,0.3C1344.9,855.2,1352.2,857.6,1359.9,858.4"/>
	<path class="st7" d="M1198.9,983c-4.8,24.5-7.5,50.7-24,69.3c7.8-20.4,4.3-44.2-7.4-62.6c-0.6-3.2-1.3-6.4-3.1-9.2
		c-0.4-0.7-0.9-1.3-1.4-1.9c0.4-0.3,0.8-0.6,1.2-0.9c0.7,0.8,1.5,1.5,2.4,2.2C1175.4,987.2,1188.8,988,1198.9,983 M1263.9,955.9
		c2.4,5,4.6,10.1,6.7,15.2c-5.2,4.2-10.9,7.1-17.5,6.8c-7-0.4-13.2-4.8-20.3-5.3c-5.3-0.4-10.1,1.5-14.2,4.7
		c-1.3-1.9-2.9-3.8-4.7-5.3c-0.8-0.6-1.6-1.1-2.4-1.6c3.2-5.6,6-11.6,11.8-13.5c6.3-2,12.8,1.8,19.2,3.1
		C1250,961.6,1257.5,959.8,1263.9,955.9 M1283.6,923.6c4.6,6,9.1,12.1,13.5,18.3c-4.6,5.9-9.5,11.6-14.6,17.1c-3-3.8-6-7.6-9.1-11.3
		c3.3-3.8,5.9-8.3,7.6-13C1282.3,931.1,1283.2,927.4,1283.6,923.6 M1304.5,879.4c5.3,6.9,10,15,14.1,21.4
		c-3.7,6.3-5.7,13.8-8.7,20.2c-0.2,0.4-0.4,0.7-0.4,1c-8.3-6.7-17-12.8-26.2-18.2c-0.9-6.3-2.3-12.5-4-18.6
		C1288.5,886.2,1296.9,883.8,1304.5,879.4"/>
	<path class="st6" d="M1358.6,814.2c-1.9,3.7-4.9,7.1-8,10.2c1.2-3.1,2-6.4,2.2-9.7l0,0C1354.7,814.6,1356.7,814.4,1358.6,814.2
		 M1352.4,784.4c0.9,0.7,1.7,1.5,2.5,2.3c-5-1-10-1.9-14.8-3.4c0-1.5-0.2-3-0.4-4.5C1344.3,779.4,1348.8,781.4,1352.4,784.4"/>
	<path class="st8" d="M1354.9,786.7c2.3,2.4,4,5.2,5,8.4c2.6,7.6,1.5,13.8-1.4,19.2c-1.9,0.2-3.9,0.4-5.8,0.5
		c0.4-6.4-2.5-13.3-7.3-17.3c-2.4-1.9-5.3-3.2-8.5-3.2c2.4-3.2,3.2-7,3.1-11C1344.9,784.7,1349.9,785.7,1354.9,786.7"/>
	<path class="st6" d="M1108.7,1023.1c-0.2,0.2-0.4,0.4-0.4,0.5c-7.5,8.2-15.4,17.6-26.6,19c-14.6,1.8-26.1-10.9-38.2-19.2
		c-8.7-6.1-18.9-10.1-29.4-11.7c2.6-0.5,5.1-1.3,7.6-2.4c4.1-1.8,8.3-4.3,12.9-4c3,0.3,5.5,1.6,7.8,3.4c1.7,1.3,3.2,3,4.8,4.6
		c1.6,1.6,3.2,3.3,4.9,4.7c1.8,1.4,3.6,2.6,5.6,3.3c10.9,3.4,21.4-8.3,32.6-6.9C1097.2,1015,1102.5,1020.4,1108.7,1023.1"/>
	<path class="st5" d="M855.2,849c-0.1,0.4-0.2,0.6-0.3,1c-18,3-35.9,7-53.6,11.8c0.4-1.9,1.7-4.1,3-5.6c7.6-9.3,16.9-17.1,27.4-23
		c1.5,0.4,3,1,4.5,1.4c2,2.9,4.5,5.5,7.2,7.7C846.9,845.1,851,847.4,855.2,849"/>
	<path class="st7" d="M854.9,850c-1,2.4-3.1,4.2-5.1,5.9c-2.6,2.2-5.3,4.3-7.9,6.5c-11.5,3.7-23.2,7.1-35,5.4
		c-1.4-0.2-3-0.5-4.1-1.4c-0.2-0.1-0.3-0.3-0.4-0.4c-1.1-1.1-1.3-2.7-1-4.2C819,856.9,836.9,853,854.9,850"/>
	<path class="st5" d="M933,940.7c-0.9,0.2-1.7,0.3-2.6,0.4c-0.3-0.4-0.5-0.7-0.9-1.1C930.8,940.2,931.9,940.4,933,940.7 M967.4,947
		c0.1,0.3,0.1,0.4,0.2,0.7c-0.5,0.1-1.1,0.3-1.6,0.4C966.4,947.7,966.9,947.4,967.4,947"/>
	<path class="st7" d="M959.2,934.7c4,3.3,7,7.5,8.1,12.4c-0.4,0.4-1,0.7-1.4,1.1c0,0,0,0-0.1,0c-9.4,2.6-20.4,6.6-28.3,0.9
		c-0.3-0.2-0.5-0.4-0.7-0.5c-1.9-1.6-3.4-3.5-4.9-5.5c-0.4-0.6-0.9-1.2-1.4-1.8c0.9-0.2,1.7-0.4,2.6-0.4c-1.1-0.3-2.3-0.4-3.4-0.6
		c-0.8-1-1.7-1.9-2.6-2.6c-0.4-0.4-0.8-0.6-1.2-1c-1.8-1.1-3.7-1.8-5.7-2.1c7.4-4.2,15.8-6.8,24.2-6
		C949.7,928.9,955,931.2,959.2,934.7"/>
	<path class="st9" d="M905.7,1018.9c1,2.1,1.5,4.4,1.9,6.9c-1.5-0.4-2.9-1-4.1-1.9c-0.8-0.6-1.4-1.4-1.9-2.3
		C902.8,1020.6,904.2,1019.7,905.7,1018.9"/>
	<path class="st5" d="M907.1,1018.2c0.1,1.8,0.4,4.8,0.8,7.8c-0.1,0-0.3-0.1-0.4-0.1c-0.4-2.5-0.9-4.8-1.9-6.9
		c0.2-0.1,0.4-0.2,0.5-0.3C906.5,1018.5,906.8,1018.3,907.1,1018.2 M949.2,996.3c-0.6,0.6-1.3,1.2-2,1.9c-2.4,1.9-5.4,3.4-8.6,4.4
		C942.1,1000.7,945.7,998.6,949.2,996.3"/>
	<path class="st6" d="M966.7,982.9c2.3,7.9,7,15.3,13.3,20.5c0.2,0.2,0.4,0.3,0.6,0.4c4.3,3.4,9.4,5.8,14.7,7.2
		c-6.7,0.8-13.9,3.5-20.4,3.2c-7.7-0.4-13.3-2.8-21.4-0.8c-7.3,1.8-14.2,4.9-21.4,7.4c-4.9,1.7-9.7,3-14.7,4.2
		c-2.8,0.7-5.8,1.3-8.7,1.1c-0.3,0-0.6-0.1-0.9-0.1c-0.4-3-0.7-6-0.8-7.8c10.3-5.5,21.1-10.1,31.4-15.5c3.4-1.1,6.4-2.5,8.6-4.4
		c0.7-0.6,1.4-1.2,2-1.9c1-0.6,2-1.3,3-2C957.2,990.8,962.1,987,966.7,982.9"/>
	<path class="st7" d="M868.1,925.3c0.2,0.2,0.4,0.4,0.6,0.5c1.1,1,1.9,2,2.6,3.2c-5.4-1.8-10.5-4.1-15.5-6.7
		C860.4,921.9,864.6,922.5,868.1,925.3"/>
	<path class="st10" d="M1161.4,493.6c10,10.5,19,19.7,34.1,20.6c10.9,0.6,21.4-6.7,32.2-5.6c16.6,1.8,19.6,15.5,29,27
		c5.6,6.9,12.8,11.6,19.9,16.3c8.7,5.8,17.5,11.6,23.4,21.4c9.7,16.1,12.1,37.2,3.5,54.4c-4.4,8.7-11.1,18.9-6.1,27.2
		c2.3,3.7,6.4,5.8,10.6,7.2c13.3,4.4,28.3,3,40.9,9.2c12.5,6.2,19.6,26.3,7.6,33.5c12.4,9.4,9.7,32.2-4.6,38.4
		c-3.4,1.5-7.4,2.2-10.3,4.5c-13,10.1,5.4,33.6-4.6,46.7c9.7,0.1,16.4,10.9,15.8,20.6c-0.5,9.6-6.2,18.2-11.6,26.2
		c-15,22.1-35.3,46.9-61.9,44.4c4.4,16.1,7.2,33.6,1.7,49.4s-22.1,28.8-38.4,25.2c-6.4-1.4-13-5.2-19.2-3.1
		c-7.3,2.4-9.9,11.1-14.3,17.5c-9.7,14.1-33,16-44.8,3.4c-10.3,7.1-15.4,19.3-22.3,29.6c-7,10.3-18.8,19.9-30.8,16.5
		c-7.4-2.1-13.1-8.7-20.7-9.7c-11.3-1.4-21.8,10.2-32.6,6.9c-4.1-1.3-7.4-4.6-10.5-7.9c-3.7-3.9-7.4-7.7-12.5-8
		c-4.5-0.4-8.6,2.2-12.9,4c-13.3,5.7-29.7,3.5-41.1-5.4c-11.4-8.9-17.4-24.4-15.1-38.6c0.8-4.8,2.4-9.4,2.3-14.2
		c-0.3-11.9-11.7-21.4-23.6-22.6c-11.8-1.1-23.5,4.4-32.8,11.8c-4.7,3.7-9.3,8-15.2,8.9c-9.2,1.3-17.3-6.4-21.8-14.5
		c-1.7-3.1-3.2-6.4-5.7-8.7c-10.8-9.8-27.9,3.5-42.2,0.8c-13.1-2.6-19.7-19-15.6-31.7c4.1-12.7,15.5-21.6,27.4-27.4
		c11.9-5.9,25-9.5,36.4-16.3c-15.2,2.3-31.3-5.1-39.4-18.1c-8.5,0.1-16.7-5.6-19.7-13.4s-0.6-17.6,5.7-23.1
		c-15.2,5.7-31.9,11.6-47.1,5.9c-19.1-7.1-28-30.8-24.2-50.8c3.7-20,17-36.9,31.1-51.6c2.4-2.5,4.9-5.2,5.1-8.6
		c0.4-4.9-4.1-8.8-6.7-13.1c-5.7-9.3-1.5-23.2,8.5-27.6c3-1.3,6.4-2,8.5-4.5c3.8-4.6,0-11.6-4.9-15.2c-4.9-3.4-10.9-5.7-14-10.8
		c-4.7-7.7,0.1-17.9,6.8-24c6.7-6.1,15.3-10.1,21-17c5.8-7,8.3-16.5,14.9-22.8c9.7-9,25.1-8.1,37.5-3.4c12.4,4.8,23.3,12.8,36,16.7
		c12.6,4,28.5,2.6,36.2-8.3c-10.3-7.9-21.2-16.4-25.3-28.6c-4.1-12.3,2-28.9,14.9-30.4c3.4-0.4,6.8,0.2,10.1-0.7
		c7.9-2.3,10.5-11.7,15.1-18.5c7.4-11,23-15.5,35.3-10.3c-3.1-8.3,2.8-17.6,10.5-22.2c7.7-4.5,16.8-5.8,25.1-8.7
		c2.9-1.1,6.1-2.3,8.9-1.1c4.4,1.8,4.9,7.6,7.5,11.6c4.1,6.6,13.9,7.8,21,4.6c7.1-3.2,12.3-9.5,17.2-15.6c8.8,7.5,17.7,15,26.6,22.6
		c4.8-11,21.5-6.4,31.3,0.6C1140.1,473.3,1151.3,483,1161.4,493.6"/>
	<path class="st11" d="M1104.4,597.1c11.8,31.3,23.6,62.7,35.5,94c1.7,4.5,4.3,9.6,7.9,12.5c2.2,1.8,4.8,2.7,7.8,2.3
		c6.3-1.1,9.3-8.4,9.9-14.6c0.7-7.4-1.9-27.4,6.1-31.9c2.3-1.3,4.1-1.1,5.7,0.3c5,4.1,7.1,17.9,8.1,23.5c2,11,3.7,21.2,9.4,31.2l0,0
		c0,0.7,0.1,1.5,0.2,2.2c0.9,12.2,1.8,24.3,2.6,36.4c0.3,4.1,0.4,8.9-2.8,11.5c-0.4-0.3-0.8-0.6-1.1-0.9c-5.7-4.7-9.6-11-13.5-17.5
		s-7.8-12.8-13.5-17.5c-0.4-0.4-0.8-0.6-1.2-1c-4,14.1,6.3,29.4,2.3,43.6c-0.4-0.4-0.9-0.8-1.3-1.2c-2.9-2.4-6.7-3.6-10.5-3.4
		c7.4,8.4,5.6,23.2-3.7,29.5c-1.1,0.7-2.3,1.4-3.6,1.6c-5.8,0.8-10.9-7.6-16.2-5.2c-1.3,0.5-2.2,1.7-3.2,2.7
		c-6.4,7.9-13,17.2-23,18.6c-2.6,0.4-5.1,0.2-7.6,0.6c-4.5,0.8-8.4,3.6-12.5,5.4c-10.3,4.5-22.4,2.6-33.1-0.9
		c-7.8-2.6-15.2-5.8-22.2-10c-3.2-1.9-6.4-3.9-10-4.6c-3.6-0.7-7.9,0.3-9.8,3.4c13.3,9.4,28.3,18.3,41.3,28.7
		c-14.9-7.8-29.3-16.2-42.3-26.7c-0.7-0.5-1.3-1.1-2-1.7c-8.7-7.3-16.6-15.6-25.1-23.3c-3-2.7-6-5.3-9.2-7.9
		c-13-10.6-27-19.8-41.8-27.4c-5.7-2.9-11.9-5.9-16.9-10c-3.3-2.6-6-5.7-7.8-9.6c19.5,0,38.2,8.1,54.7,18.5
		c16.5,10.4,31.3,23.2,47.6,34.1c16.5,11,34.3,19.9,53,26.6c-9.6-17.6-21.2-34-34.5-49c-7.2-8.1-15-16.1-19.8-25.8
		c-4.8-9.8-5.8-22.2,0.5-31.1c1.5-2.1,3.7-4.1,6.3-4.2c1.8-0.1,3.4,0.8,5,1.8c1.8,1.1,3.4,2.3,5.1,3.6c8.3,6.8,14.5,16.1,20.6,25.5
		c6.1,9.4,12.2,18.6,20.3,25.3c3.1,2.6,6.4,4.7,10.3,6.3c2,0.8,4.2,1.5,6.3,0.9c4.8-1.5,4.9-8.2,3.6-13.1
		c-4-14.5-12.4-29.4-7.1-43.4c9.9,10.3,19.9,20.6,29.7,31c0.7,0.7,1.4,1.4,2.1,2c0.9,0.7,1.9,1.3,2.9,1.6c6.4,1.7,10-7.1,10.1-13.8
		C1124.7,683,1100.1,640.8,1104.4,597.1"/>
	<path class="st12" d="M1544.9,604.5c0.6,0.5,1.2,1.1,1.9,1.6c-2.9,11.5-15.7,16.6-26.4,21.7c-19.1,9.2-35.7,23.3-47.8,40.7
		c1,1.7,2.1,3.1,3.5,4.2c6.4,5.2,16.9,5.1,25.6,4.4c8.4-0.7,18.5-0.4,24.6,4.6c1.7,1.3,3,3,3.9,5.1c-6.8,8.9-15.2,16.6-24.7,22.5
		c6.9,9,14.7,17.2,23.6,24.4c1.8,1.5,3.6,2.9,5.5,4.2c-24,22.3-56.1,35.6-88.9,37c-6.2,0.3-13.4-0.6-17.9-4.3
		c-1.6-1.2-2.7-2.8-3.5-4.9c-2-5.6,0.6-11.6,3.4-16.9c7-13.9,13.9-27.7,20.9-41.5c-5.3-3.6-10.7-7.3-16-10.9
		c3.6-12.3,14-21.2,20.5-32.3c5.8-10,6.7-25-1.6-31.8c-1-0.8-1.9-1.4-3.1-1.9c-5.3-2.5-11.6-1.5-17.3-0.5c-13.6,2.3-27.2,4.7-40.8,7
		c-7.5,1.2-16.7,0.3-21.8-3.9c-4.1-3.4-5.6-8.7-1.6-16.7c5.8-11.5,18.6-8.6,29.5-9.2c36.2-1.9,72.2-8.3,108.4-10.5
		C1518.7,595.7,1534.3,595.7,1544.9,604.5"/>
	<path class="st13" d="M1427.9,880c8.6,7,4.9,30.8,6.9,40.6c3.1,15.4,9.8,29.4,15.4,43.9c2.4,6.3,7.1,40.6,10,42.9l0,0
		c-0.8-0.6-1.5-1.2-2.3-1.9c-11.8-9.6-22.4-20.6-32.9-31.6c-19-19.8-37.9-39.5-57-59.4c-3.8-4-7.9-9.5-5.4-14.5
		c1.9-3.5,6.4-4.8,10.3-4.5c4,0.2,7.9,1.4,11.8,1.1c13.8-1,26.7-25.9,41.7-17.6C1427.1,879.4,1427.5,879.7,1427.9,880"/>
	<path class="st13" d="M1304.4,1035.2c6.1,12,12.2,24.1,18.3,36.1c3.8,7.6,7.9,15.4,14.5,20.8c0.4,0.4,0.8,0.6,1.2,1
		c3.4-2.4-1.3-8.4,1.2-11.6c1.9-2.4,5.4-0.9,7.9,1.1c0.4,0.4,0.8,0.7,1.1,1.1c15.4,15.6,49.2,39.6,57.1,59.9
		c10.8,28.1-16.9,8.5-27.9,3.8c-6.4-2.7-13.9-3.5-19.9-0.4c-4.9,2.6-8.2,7.6-12.6,11.2c-9.7,7.9-24.7,6.4-34.1-1.3
		c-3.4-2.8-6.1-6.4-7.6-10.7c-3.7-10.9,0-22.9,2.6-34.1C1311.9,1087,1311.2,1060.2,1304.4,1035.2"/>
	<path class="st12" d="M1120.5,1044.1c0.6,0.4,1.1,1.1,1.4,1.9c0.7,1.6,0.7,3.4,0.6,5c-0.7,24.8-3.4,53-21.9,71.7
		c-17.7,17.8-47.1,28.2-69,40.4c-3.6,2-7.9,4.1-11.8,2.6c-0.7-0.3-1.4-0.7-1.9-1.1c-3.1-2.6-4.1-7.3-4.1-11.6
		c-0.4-12.3,2.6-24.4,3.1-36.6c0.5-12.3-2-25.6-11.1-33.8c-0.4-0.4-0.8-0.7-1.1-1c-6.4-5.2-14.6-7.3-22.8-9.5
		c-8.2-2.1-16.4-4.3-22.9-9.6c-0.1-0.1-0.2-0.2-0.3-0.3c-11.1-9.4-12.9-28.2-2.9-38.7c8.4-8.8,23.8-9.2,32.9-1.7
		c1.8,1.4,3.3,3.2,4.5,5.2c6.6,11.1,3.6,27.6,13.5,35.7c0.2,0.2,0.4,0.4,0.6,0.4c7,5.1,17.1,3.4,24.2-1.6c7-5,11.6-12.7,15.9-20.2
		c1.8,8.6,6.6,17.4,13.3,22.8c5.3,4.3,11.6,6.5,18.4,4.9c12.5-3,18.7-17.2,29.5-24.1C1112.2,1042.6,1117.5,1041.6,1120.5,1044.1"/>
	<path class="st13" d="M1156.8,336c0.8,0.7,1.6,1.5,2.3,2.4c18.4,22.5,46,82.7-6.1,55.5c-8.2-4.2-17.9-3.7-27.1-4.2
		c-7.3-0.4-15.4-1.9-20.9-6.4c-1.4-1.1-2.6-2.5-3.6-4c15.7-14,31.4-28,47.1-42c1.4-1.2,2.9-2.6,4.9-2.6
		C1154.6,334.5,1155.8,335.2,1156.8,336"/>
	<path class="st13" d="M1308.1,383.4c0.5,0.4,1.1,1,1.8,1.5c17,15.5,19.1,62.7,24,83.5c1.3,5.6,2.6,11.5,1.1,16.9
		c-2.9-1.2-5.6-2.9-7.9-4.9c-11.8-9.6-17.3-26.6-21.4-41.9C1303.2,429.4,1284.9,364.5,1308.1,383.4"/>
	<path class="st14" d="M1200.6,691.6c2.5,8.1,4.4,16.6,6.8,24.6c1.8,6,7.1,11.2,8.2,17.3c1.1,6.4,0.9,11.6-1.4,17.2
		c-6.1,14.9-9.3,31.1-15.4,45.9c-5.6,13.2-15.9,23.6-26.2,33.4c-4.9,4.6-10,9.2-16.1,12c-7.3,3.4-15.7,4.1-23.8,4.9
		c-4.9,0.5-9.8,1.1-14.3,3c-3.7,1.5-7.1,3.7-10.8,5.3c-14.1,6.3-30.5,2.3-42.2-7.1c-1.1-1-2.2-1.9-3.3-2.9c-2.9-2.9-6-5.6-9.3-8.3
		c-0.3-0.2-0.4-0.4-0.7-0.5c7.8,4.1,15.7,7.9,23.6,11.7c8.4,4.1,17.6,8.3,26.7,6.7c14.1-2.4,22.8-16.9,35.6-23.2
		c5.1-2.6,10.9-3.6,16.4-5.3c23.7-7.1,45.4-26.2,48.4-50.7c1.1-7.9,0.2-16.5,3.8-23.6c1.4-2.8,3.5-5.3,4.2-8.4
		c2.5-10.6-11.6-21.3-16.2-29.5C1194.3,706,1194.7,697.1,1200.6,691.6"/>
	<path class="st15" d="M1194.8,714.2c4.6,8.2,18.7,18.9,16.2,29.5c-0.7,3.1-2.8,5.6-4.2,8.4c-3.6,7.1-2.8,15.7-3.8,23.6
		c-3.1,24.5-24.7,43.7-48.4,50.7c-5.5,1.7-11.2,2.7-16.4,5.3c-12.9,6.3-21.5,20.8-35.6,23.2c-9.3,1.5-18.4-2.6-26.7-6.7
		c-7.9-3.8-15.8-7.7-23.6-11.7c-12.9-10.4-27.9-19.2-41.3-28.7c1.9-3.1,6.2-4.1,9.8-3.4c3.6,0.7,6.8,2.7,10,4.6
		c7.1,4.1,14.5,7.4,22.2,10c10.8,3.5,22.8,5.3,33.1,0.9c4.2-1.9,8-4.6,12.5-5.4c2.5-0.4,5-0.3,7.6-0.6c10.1-1.4,16.6-10.8,23-18.6
		c0.9-1.1,1.9-2.2,3.2-2.7c5.4-2.4,10.4,6,16.2,5.2c1.3-0.2,2.6-0.8,3.6-1.6c9.4-6.3,11.2-21.1,3.7-29.5c3.8-0.3,7.6,1,10.5,3.4
		c0.4,0.4,0.9,0.8,1.3,1.2c4-14.1-6.2-29.4-2.3-43.6c0.4,0.3,0.8,0.6,1.2,1c5.7,4.7,9.6,11,13.5,17.5s7.8,12.8,13.5,17.5
		c0.4,0.4,0.8,0.6,1.1,0.9c3.2-2.6,3.1-7.4,2.8-11.5c-0.9-12.2-1.8-24.3-2.6-36.4C1194.8,715.7,1194.8,714.9,1194.8,714.2"/>
	<path class="st16" d="M1184.1,806.2c-2,8.2-13.4,16.3-20.4,21.7c-9.7,7.5-16.1,6.9-22.9-4.4c-6.3-10.4-14-20-22.9-28.3
		c-2.1-1.9-4.3-3.9-6.8-5.1c-1.9-1-4-1.6-5.9-2.5c-9.3-4.2-14.9-15.2-13-25.1c-17.9-4.3-33.4-17.6-40.5-34.5
		c-7.5-3-15.2-6.2-20.7-11.9c-5.6-5.7-8.6-14.9-4.9-22.1c4.6-8.9,17.5-10.5,26.4-6c8.9,4.5,14.7,13.3,20.1,21.8
		c4.1-1.9,8.5,1.9,11.2,5.6c7.3,9.8,12.9,20.8,16.4,32.5c6.3-2.8,13.9,0.1,18.6,5.1c4.8,5,6.8,11.6,9.6,17.6
		c16-6.7,25.9-1.6,36.2,10.1c3.8,4.2,9.5,7.2,13.9,10.9C1182.8,795.2,1185.8,799.4,1184.1,806.2z"/>
	<path class="st17" d="M1131.3,501.6c-2.5-5.2,34.6,13.3,36.1,14.1c4.1-0.6,1.9-7.1-1.3-9.9c-16.1-14-32.1-28.1-48.2-42.2
		c-4.7-4.1-9.6-8.4-15.5-10.3c-15.4-5.1-31.5,6.4-47.7,6.4c-17.6,0.2-35.6-13-51.8-5.7c-11.4,5.1-16.5,18.3-25.9,26.5
		c-10.3,9-24.6,11.2-37.2,16.5c-12.6,5.3-25.1,16.9-22.7,30.3c1.8,9.7,11,17.6,9.8,27.4c-1.8,14.1-22,15.9-35.2,10.8
		c-13.2-5.1-28.2-13.3-40.5-6.2c-7.8,4.6-11.3,13.9-17.7,20.2c-8.3,8-20.6,10.2-30.8,15.7c-10.2,5.5-19.1,18.1-13.2,28.1
		c1.1,1.9,2.7,3.7,2.3,5.8c-0.6,2.8-4.2,3.6-6.1,5.9c-3.8,4.7,2.2,10.7,5.8,15.5c5.8,7.8,5.4,18.9,1.5,27.8s-10.8,16.1-17.5,23.2
		c8.9,5.2,13.4,16.9,10.2,26.8c-2.7,8.5-9.9,14.5-14.7,21.9c-4.9,7.4-6.8,18.6,0.1,24.1c8.6,6.9,23.6-1.1,31.8,6.4
		c11.1,10.1-5.9,31.9,4.6,42.8c2.6,2.6,6.3,3.9,9.8,4.9c8.6,2.7,17.3,5.5,26,8.2c5.8,1.9,13,5.6,12.1,11.6c-0.4,3.2-3.1,5.5-5.6,7.5
		c-8.1,6.6-16.1,13.3-24.3,19.9c21.5,6.6,46.4,0.4,62.4-15.4c2.1-2.1,4.1-4.7,4.1-7.6c-0.1-4.1-4.2-7-7.9-9
		c-15.3-8.4-30.5-16.8-45.8-25.1c3.7-3.5,7.4-7.1,11.1-10.7c-10.3-7.1-20.7-14.4-31.1-21.5c-5.6-3.9-11.9-9-11.7-15.9
		c0.3-8.2,9.4-12.9,17.4-15.1c10.9-3,22.1-4.8,33.4-5.1c16.5-0.6,37.3-1,43.6-16.2c-25.5-18.5-53.4-33.8-82.7-45.4
		c6.4-8.1,5.5-20.1,0.6-29.2c-4.9-9.1-12.9-16-20.8-22.7c7.4-13.3,30.8-10.5,37.3-24.3c1.9-4.1,1.9-8.9,3.4-13.1
		c4.7-13.1,21.9-17,35.6-14.2c13.7,2.9,26.2,10.2,40.1,11.7c13.9,1.4,30.7-6.6,31.1-20.6c0.4-13.1-13.1-27.5-4.1-37.1
		c7.9-8.4,25.5-1.5,31.1-11.5c3-5.4,0.2-11.9-1.3-17.9c-4.1-17.3,6.4-36.8,23-43c17.6-6.4,37.4,1.4,52.2,13
		c7.1,5.6,13.5,11.9,19.9,18.3c6.9,6.9,13.9,13.8,21.6,19.6c1.1-11.3,2.3-22.6,3.5-34c0.5-5.6,2.4-12.4,7.9-13.1
		c2.7-0.4,5.4,1.1,7.7,2.7C1117.5,480.4,1125.9,490.3,1131.3,501.6"/>
	<path class="st17" d="M1003.8,983.4c-5.6-1.8-19.4-0.9-23.6-4.6c-6.9-6-0.1-3.4,2.4-11.6c3.4-11.4-5.3-19.3-13.5-25.7
		c-9.5-7.4-19.9-15.1-31.9-16.1c-9.8-0.8-19.4,2.9-29.3,3.1c-9.8,0.2-21.4-5.7-21.4-15.5c4.1-11,16.9-17.1,28.6-16.5
		c11.7,0.6,22.5,6.8,31.8,14.1c9.3,7.3,17.4,16,26.9,22.9c6,4.4,12.7,8.3,16.9,14.5c4.1,6.2,4.8,15.6-1.1,20.3
		c4.4-3.2,8.9-6.3,13.3-9.4c5.7,14.6,26,21.4,39.4,13c7.7-4.8,14.5-13.9,23.3-12.1c8.2,1.7,11.4,11.3,14.4,19.1
		c3,7.9,10.6,16.4,18.2,12.9c6.2-2.9,8.2-12.5,15-13c2.7-0.2,5.3,1.4,7.9,2.4c12.8,4.8,26.1-5,35.6-14.7s20.6-21,34.2-19.7
		c6.9,0.7,14.7,4.4,20.2,0.2c2-1.6,3.3-4.1,4.3-6.4c7.1-15.3,14.2-30.6,21.4-45.9c1.9-3.9,3.6-7.9,6.4-11.1
		c3.6-4.3,8.6-7.3,12.6-11.3c13.2-12.9,15.3-34.1,28.4-47.1c6.7-6.6,15.7-10.4,23.5-16c7.8-5.5,14.6-14,13.6-23.4
		c-0.9-7.9-7.1-15.9-3.5-23c1.5-3,4.5-4.9,6.6-7.5c4.8-5.8,4.8-14.1,4.1-21.6c-0.7-7.5-1.7-15.4,1.5-22.2c3.3-6.8,12.9-11,18.5-6.1
		c3.6,3.2,4.1,8.9,2.6,13.5c-1.6,4.6-4.8,8.5-7.6,12.4c-10.2,14.2-16.3,35-5,48.5c3.7,4.4,9.3,8.4,9,14.1c-0.2,2.9-1.9,5.6-3.7,7.9
		c-9.4,12.2-21.8,22.4-28.1,36.5c-5.8,13.1-5.8,28.5-13.8,40.3c-5.7,8.6-14.8,14.1-22.3,21.2c-10.7,9.9-18.4,22.9-22.1,37
		c-1.1,4.1-1.9,8.4-4.5,11.6c-6,7.3-17.4,5.4-26.9,5.6c-22.9,0.8-41.1,18.4-58.2,33.7c-17.1,15.3-39.4,29.9-61.4,23.4
		c-6.5-1.9-12.4-5.6-18.6-8.3c-15.3-6.5-32.3-7-48.8-9C1026.1,991.8,1015.7,987.1,1003.8,983.4z"/>
	<path class="st17" d="M1329.5,678.7c-6.6-6.4-12.1-6.4-20.8-6.7c-9.7-0.4-18.7-5.8-25.6-12.7c-6.9-7-11.8-15.4-16.8-23.9
		c-1.6-2.6-3.2-5.6-2.7-8.6c0.4-2.8,2.6-5.1,4.3-7.3c4.5-5.6,7.7-12.4,8-19.6c0.8-17.7-15.2-32.4-16.6-50c-0.2-2.8,0-5.8,1.7-8
		c2.3-3.2,7.1-4.1,10.8-2.7c3.7,1.3,6.7,4.3,9,7.6c5.8,8.3,8.5,18.4,10.4,28.3c1.7,8.6,3.1,17.5,4,26.2c0.4,4.3,0.8,8.8-1.1,12.7
		c-2.1,4.3-6.6,7-9.7,10.6c-8,9.3-6,24.2,1.3,34c6.7,8.9,17.4,14.7,28.5,15.5C1319.6,674.4,1326.9,673,1329.5,678.7z"/>
	<path class="st18" d="M1233.6,533.2c2.7,2.2,4.8,5.6,5.6,9c1.5,5.9,0.3,12.1-1.5,17.9c-2.7,9-7,17.5-12.4,25.1
		c-5.8,8.3-14.1,31.3-27.1,27.7c-1.1-0.3-2-0.9-2.9-1.6c-2.2-1.8-4-4.6-5.7-7.4c-1.9-2.8-3.7-5.7-6.1-7.7c-3.1-2.6-7.1-3.4-12.8-0.2
		c-4.1,2.3-6.4,6.8-9.4,10.4c-5.6,6.8-14.4,10.9-23.2,10.9c-1.9,0-4-0.4-5.3-1.5c-0.5-0.4-1-1-1.2-1.7c-0.4-1.1-0.3-2.2-0.1-3.4
		c2.5-19.1,4.9-38.1,7.4-57.2c1.1-8.6,2.5-17.7,8.1-24.4c0.1,8.9,4.5,17.6,11.4,23.1c2.8,2.3,6.1,4.1,9.6,5.2c3,1,6.3,1.4,9.4,0.8
		c6.1-1.1,10.8-6,15.4-10.1c7.1-6.4,15.1-11.6,23.8-15.6c3.3-1.5,6.8-2.8,10.3-2.5C1229.4,530.6,1231.6,531.7,1233.6,533.2"/>
	<path class="st18" d="M1018.7,488.3c10.8,38.7,27.4,75.9,49.2,109.7c7.4,11.5,30.6,31.8,32.8,44.3c3.3,18.3-14.7,17.8-28.4,14.2
		c-19-4.9-38.7-6.6-58.2-4.9c-5.9,0.5-11.9,1.4-17,4.3c-21.4,12.1-13.4,47.3-30.3,65.1c-2-1.2-4-2.6-5.8-4.1
		c-12.4-10.1-20.6-25.1-30.7-37.8c-6.3-7.8-13.4-14.6-21.2-21c-16.8-13.7-36.2-24.4-55.2-34.9c16.8-8.4,36.9-2.6,54.1,4.9
		c17.2,7.4,34.9,16.6,53.6,14.5c-14.9-14.6-29.1-29.8-42.6-45.7c5.1-0.2,10.3-1.5,14.7-3.9c21.1,6.8,41,17.4,58.5,31.1
		c8.8-9.1,6.3-24,2.4-36.1c-3.9-12.1-8.2-25.9-1.7-36.8c3.2,0.6,5.8,1.9,8.1,3.9c6.4,5.2,9.8,14.5,13.1,23.8
		c3.4,9.4,6.9,18.7,13.5,24.1c1.9,1.6,4.1,2.8,6.7,3.6c-8.3-28.9-16.6-57.8-25-86.7c-1.8-6.1-3.5-12.4-2.6-18.6
		C1008,495.2,1012.5,489.1,1018.7,488.3"/>
	<path class="st19" d="M933.7,593.2c-4.4,2.3-9.6,3.7-14.7,3.9c-2.7-3.2-5.4-6.4-8-9.6C918.7,588.9,926.2,590.8,933.7,593.2"/>
	<path class="st18" d="M957.5,772.7c0.4,0.3,0.6,0.5,1,0.9c8,8.6,3,27.6,7.9,38.1c2,4.4,5.1,7.9,8.8,10.9
		c6.3,5.1,14.3,8.7,21.6,12.4c22.7,11.3,43.1,26.5,63.4,41.6c1.1,0.8,2.1,1.6,3.1,2.4c3.4,2.7,6.4,6,7.6,10.1
		c1.1,4.2,0,8.8-1.3,13.1c-5.7,17.4-15.8,33.4-29,46.1c-2.7,2.6-6.1,5.4-10,5.2c-1.9-0.1-3.6-0.8-4.9-1.9c-4.9-4-6.5-13.2-11.5-18.4
		c-0.4-0.4-0.9-0.8-1.3-1.2c-4.5-3.7-10.8-4.3-17-4.9c-6.3-0.6-12.4-1.2-16.9-4.9c-0.6-0.5-1.2-1.1-1.8-1.7c-6.9-8-2.1-20.3,3-29.6
		c3.4-6.3,6.9-12.6,10.2-18.9c1.4-2.6,2.9-5.4,3-8.4c0.1-3.4-1.7-6.4-4.3-8.5c-2.6-2.1-5.9-3.4-9.3-3.6c-6.7-0.4-13.1,2.6-19.3,4.9
		c-17.8,6.8-37,10.1-56,9.4c-3.6-0.1-7.9-1-10.4-3.2c-1.4-1.1-2.3-2.6-2.4-4.5c-0.2-2.6,1.5-5.1,3.1-7.2
		c7.1-9.7,14.2-19.4,21.3-29.1c-14.2-6.6-30.2-8.2-45.3-12.3c-9.9-2.6-19.9-6.7-27.6-13.1c-4.1-3.4-7.8-7.5-10.2-12.4
		c-2.5-4.8,78.6-16.5,85.9-16.4C928.3,767.9,949.5,766.1,957.5,772.7"/>
	<path class="st18" d="M1320,722.1c-26.5,16.1-56.5,28.2-84.4,41.8c1.6,2.6,3.8,4.9,6.3,6.9c3,2.4,6.4,4.5,9.7,6.6
		c3.4,2.1,6.6,4.1,9.4,6.4c4.1,3.4,7.2,7.3,7.7,12.8c1.7,17.8-27,25.5-28.5,43.4c-0.3,3.3,0.4,6.5-0.4,9.7
		c-2.2,9.5-14.5,11.5-23.9,13.9c-19.5,5.1-35.8,21.2-41.3,40.6c-17.6-10.1-39.7-11.9-58.7-4.9c-2,0-3.9-0.8-5.4-1.9
		c-3.8-3.1-5.6-9.2-4-14.1c2.2-6.9,8.6-11.5,14.8-15.1c28.2-16.3,64.1-23.8,82.1-51c5.6-8.4,8.9-18,12.2-27.5
		c8.6-24.8,17.1-50.2,17.1-76.4c0-10.3-1.2-20.9,2.5-30.5c6.4-16.6,15.4-16.7,22.9-10.4c6,4.9,11.2,13.7,13.7,21.4
		c2.4,7.4,5.4,11.9,8.9,14.8C1290.4,716.3,1304,712.6,1320,722.1"/>
	<path class="st20" d="M920.3,566.7c-1.7-0.2-3.4-0.4-4.9-0.8c-1.4-0.4-2.8-0.9-4.2-1.4c-2.6-1-5.5-1.3-8.3-1
		c-0.7,0.1-1.5,0.2-2.2,0.2c-8.4,0.6-16.4-0.9-23.9-4.8c-3.8-1.9-7.5-4.1-11.3-6.3c-2.1-1.2-4.2-2.5-6.4-3.6
		c-8.1-4.1-16.5-4.4-25.1-1.9c-5.3,1.5-8.6,5.1-10.1,10.4c-0.4,1.4-0.6,2.9-1.1,4.4c-0.4,1.4-0.7,2.9-1.9,4.4
		c-0.7,0.4-1.7,0.9-2.7,1.2c-1.2,0.4-2.6,0.6-3.8,1c-3.3,0.7-5.8,2.4-7.9,5c-1.5,1.9-3,3.8-4.3,5.8c-1.8,2.6-3,5.6-3.4,8.8
		c-0.1,0.5-0.1,1.1,0.1,1.7c0.1,0.3,0.4,0.4,0.8,0.7c0.4-0.4,0.8-0.7,1.1-1.1c1.5-2.1,3-4.3,4.4-6.4c1.3-2,2.8-4,4.6-5.6
		c1.9-1.9,4.1-3.3,6.7-3.8c1.3-0.3,2.6-0.5,3.8-1c1.2-0.4,2.4-1.1,3.5-1.7c1-0.5,1.8-1.4,2.2-2.5c0.7-1.8,1.3-3.5,1.9-5.3
		c0.4-1.4,0.7-2.9,1.2-4.3c1.2-3.6,3.7-6,7.4-7c0.7-0.2,1.5-0.4,2.2-0.4c5.6-0.9,10.9-0.1,15.8,2.6c2.3,1.2,4.6,2.6,6.8,4
		c3.9,2.6,8,4.9,12.3,6.8c8.3,3.9,17,5.7,26.2,4.6c0.4-0.1,0.7-0.1,1.1-0.1c3.3-0.5,6.4-0.2,9.4,1.1c1.4,0.5,2.8,1.1,4.2,1.4
		c1.7,0.4,3.4,0.6,4.9,0.7c2,0.1,4.1-0.3,6-1.1c2.6-1.1,4.1-3.2,4.4-6c0.1-0.9,0.1-1.9,0-2.8c-0.3-3.1-1.2-5.9-2.9-8.4
		c-1.1-1.7-2.5-3.4-3.9-4.8c-3.5-3.4-7.2-6.4-11.6-8.9c-2.3-1.3-4.5-2.6-6.8-4c-0.6-0.4-1.2-0.8-1.9-1.2c-1.8-1.4-2.5-3.2-2.3-5.5
		c0.5-5.6,3.3-9.9,8.1-12.7c2.1-1.2,4.4-2.1,6.8-2.6c2.2-0.5,4.4-1.1,6.5-1.6c3.7-0.9,7.1-2.4,10.1-4.9c0.5-0.4,1.1-0.9,1.7-1.2
		c1.1-0.1,1.7,0.3,2.1,0.9c3.5,5.3,7.1,10.5,10.6,15.9c6.9,10.7,13.2,21.7,19.6,32.7c7.5,13,15.2,25.8,22.1,39.1
		c0.3,0.5,0.6,1,1,1.3c0.2,0.2,0.5,0,0.8,0c0.2-1.1-0.3-1.9-0.6-2.7c-3.4-7.9-6.5-16-10.1-23.8c-9.4-21.3-21.1-41.3-33.7-60.8
		c-2-3.2-4.2-6.2-6.9-8.8c-0.4-0.4-0.6-0.9-1-1.4c0-0.5-0.2-1.1-0.1-1.7c0.2-1.1,0.4-2.2,0.8-3.3c0.3-0.8,0.9-1.1,1.7-1.3
		c1-0.2,1.9-0.1,2.6,0.6c1.4,2.4,2.8,4.9,4.2,7.2c4.5,7.3,8.7,14.8,12.6,22.5c8.7,16.9,17.1,34.1,24.7,51.6c0.4,0.9,0.7,1.8,1.2,2.6
		c0.2,0.3,0.6,0.4,1,0.5c0.3-1.6-0.5-2.9-1-4.2c-6.4-20-14.5-39.4-24.4-57.9c-4.1-7.6-7.9-15.3-13.4-22c-0.4-0.4-0.4-1-0.5-1.5
		c0.8-1.1,1.9-1.2,3-1.6c3.2-1.1,6.2-2.6,9-4.6c3-2,5.4-4.7,6.9-7.9c0.7-1.5,1.4-3.1,2.2-4.5c0.2-0.4,0.9-0.5,1.2-0.8
		c1.3,1,2,2.4,2.8,3.6c8.9,14,16.9,28.7,24.5,43.5c6.4,12.7,12.4,25.6,17,39.1c0.2,0.5,0.5,1,0.8,1.4c0.4,0.7-0.2-0.3,0.9,0.1
		c-8.7-34-22.9-65.1-43.5-93c-0.2-0.9-0.1-1.6,0.4-2.3c1-1.4,2.2-2.6,3.8-3.2c1.4-0.6,2.7-1.2,4.4-1.9c1.9-0.4,4.2-0.1,6.4-1.6
		c0.1-0.1,0.4-0.4,0.6-0.6c0.6-0.7,1.1-1.4,1.8-2.2c0.7-0.9,1.4-1.7,2.2-2.6c0.4-0.4,1.6-0.6,2.1-0.4c0.8,0.4,1.7,0.9,2.4,1.5
		c2,1.7,4.1,3.4,6,5c2.4,1.9,5,2.3,7.9,1.4c1.8-0.5,3.4-1.4,5-2.5c1.9-1.2,3.5-2.7,5-4.4c1.4-1.5,2.9-2.9,4.7-4
		c1.8-1.1,3.5-1.1,5.3,0c0.8,0.5,1.5,1.1,2.2,1.7c1.9,1.7,3.2,3.7,4.2,5.9c0.9,1.9,1.9,3.7,2.9,5.5c1.1,2,3,3.4,5.2,4.1
		c2.1,0.7,4.3,1.1,6.6,1c7.7-0.3,14.2-3.2,19.3-8.8c1.4-1.5,2.6-3.2,3.9-4.8c1-1.1,1.9-2.4,2.9-3.4c0.8-0.8,1.7-1.5,2.6-2
		c3.6-1.8,7.2-1.7,10.8,0.4c1,0.5,1.9,1.3,2.7,1.9c3.2,2.4,5.7,5.4,8.1,8.5c2.2,2.8,4.6,5.4,7.6,7.4c0.6,0.4,1.1,1,1.4,1.9
		c-0.2,0.7-0.4,1.6-0.7,2.5c-0.8,2.6-1.7,5.4-2.4,8.1c-6.3,27.2-10.8,54.7-13.1,82.6c-0.1,1.1-0.1,2.2-0.1,3.4c0,0.5,0.3,0.6,1,0.2
		c0.3-0.9,9.8-49.9,13.4-67c1.9-9.2,4.1-18.3,6.3-27.4c0.2-0.8,0.4-1.4,1.2-1.9c1.3-0.3,2.8-0.4,4.2-0.7c0.7-0.2,1.4-0.5,2-1
		c0.3-0.2,0.4-0.6,0.4-1c-0.1-0.4-0.4-0.7-0.6-0.9c-0.9-0.4-1.8-0.5-2.7-0.7c-4.8-1-8.7-3.2-11.5-7.3c-1.6-2.3-3.4-4.4-5.2-6.6
		c-2.1-2.6-4.8-4.8-7.5-6.7c-1.7-1.2-3.6-2-5.6-2.6c-4.3-1.1-8.6-1-12.6,1c-1.8,0.8-3.2,1.9-4.4,3.4c-1.8,2.1-3.6,4.3-5.3,6.5
		c-1.7,2.1-3.5,3.9-5.6,5.5c-2.9,2.2-6.1,3.6-9.7,4.1c-1.5,0.2-3,0.2-4.5-0.1c-1.8-0.4-3.1-1.2-3.9-2.9c-0.6-1.4-1.1-2.7-1.8-4.1
		c-1.7-3.6-4-6.7-7.1-9.4c-4.3-3.7-11.1-4-15.8,0.7c-1.2,1.1-2.3,2.5-3.4,3.7c-1.4,1.5-2.9,2.9-4.5,4.2c-0.7,0.6-1.5,1.1-2.4,1.5
		c-1.7,0.9-3.3,0.8-4.7-0.4s-2.7-2.6-4.1-3.8c-1.6-1.6-3.4-3-5.4-4c-2.6-1.3-5.9-0.2-7.1,2.6c-0.6,1.4-1,2.8-1.5,4.2
		c-0.2,0.5-0.6,0.9-1,1.4c-2,0.4-4.1-0.2-6.1-0.3c-2.3-0.1-4.4,1-6.8,1.1c-8.2-1.6-16-4.7-22.9-9.7c-1.3-1-2.7-1.9-4.1-2.9
		c-4.1-2.9-8-6.1-11.8-9.5c-10-9.2-20.6-17.5-31.7-25.1c-1.1-0.7-2.2-1.4-3.4-2c-6.4-3.3-12.9-6-19.9-7.7
		c-10.2-2.5-20.6-3.9-31.1-3.1c-4.5,0.4-9,0.5-13.4,0.9c-6.5,0.6-13.1,0.9-19.6,0.9c-8.6,0-17.2-0.9-25.5-3.5
		c-0.5-0.2-1.1-0.3-1.6-0.4c-3.5-0.9-6.4,1.1-7.6,3.4c-0.8,1.5-1.4,3.1-1.9,4.7c-1.2,3.7-2.1,7.5-2.6,11.5c-1.1,8-1,16.1,0.9,24
		c1.9,8,3.1,16.1,5.3,24.2c0.2,0.5-0.1,1.1-0.8,1.3c-0.4-0.1-1-0.3-1.5-0.4c-2.8-0.4-4.9,0.7-5.9,3.2c-0.7,1.8-1.1,3.6-1.1,5.5
		c0.1,2.2,0.2,4.5,0.4,6.7c0.7,7.2,6.2,26.6,9.4,32.8c1,1.9,1.9,3.7,2.8,5.5c1.3,2.5,2.7,4.9,4,7.4c1,1.9,1.9,3.7,2.7,5.6
		c1.1,2.2,1,4.3-0.7,6.3c-0.4,0.4-0.7,0.9-1.1,1.3c-1.5,1.9-1.6,4.1-0.6,6.4c0.4,1.1,0.9,2,1.4,3c2.6,5,6.2,9.4,10.3,13.2
		c0.2,0.2,0.5,0.1,0.9,0.2c-0.4-0.8-5-11.4-7.1-16c-0.5-1.2-1.1-2.4-0.8-4.1c0.4-0.6,1-1.6,1.6-2.6c1.1-1.9,1.5-3.9,1.1-5.9
		c-0.3-1.2-0.7-2.6-1.1-3.7c-0.5-1.4-1.3-2.7-1.9-4.1c-2.4-4.9-4.9-9.7-7.1-14.6c-4.1-9.4-6.6-19.1-7.7-29.2c-0.2-1.7-0.2-3.4-0.3-5
		c0-0.5,0-1.1,0.2-1.7c0.1-0.4,0.4-0.7,0.6-0.9c0.3-0.1,0.8,0.1,1,0.3c0.7,0.9,1.2,1.9,1.9,2.8c0.9,1.4,1.7,2.9,2.6,4.3
		c0.3,0.4,0.9,0.6,1.3,0.9c0.6-1,0.5-1.9,0.4-2.8c-0.4-3.2-0.8-6.4-1.1-9.4c-0.8-6.9-1.4-13.8-2.3-20.6c-1.1-8.6-1.1-17.2-0.4-25.8
		c0.1-0.7,0.3-1.5,0.4-2.2c0.1-0.4,1-0.9,1.3-0.5c1.1,1,2.3,1.9,3.4,2.9c1.6,1.6,13.1,12.8,17.2,16.9c5.6,5.6,11.3,10.9,17.2,16.1
		c11.2,10,22.8,19.5,34.4,28.9c2.3,1.9,4.8,3.6,7.1,5.5c0.6,0.4,1.2,0.8,2.6,1.7c-1.7-1.9-3-2.9-4.1-4.1
		c-1.9-1.8-71.1-70.9-75.1-74.9c-0.9-0.9-1.9-1.9-2.5-3.5c0.1-0.5,0.1-1.5,0.3-2.4c0.4-1.5,0.7-2.9,1.1-4.3c0.4-1.2,1.6-2,3-2.1
		c3-0.1,6,0.3,8.9,0.8c6.1,1.1,12.2,1.9,18.4,2.2c6.5,0.4,13.1,0.2,19.7-0.2c4.7-0.3,9.4-0.5,14-0.6c10.6-0.2,20.9,1.4,31,4.6
		c4.4,1.4,8.2,3.6,11.1,7.2c0.7,0.9,1.4,1.7,2.1,2.6c5.2,6.9,9.6,14.3,13.2,22.1c5.1,11,11.2,21.6,17.7,31.9c2.5,3.8,4.9,7.5,8,10.8
		c0.6,0.7,1.2,1.4,1.7,2.2c0.3,0.4,0.4,1.1,0.4,1.5c-0.3,0.4-0.4,0.7-0.8,0.9c-1.9,1.3-2.9,3.4-3.5,5.6c-0.3,1.1-0.4,2.2-0.7,3.3
		c-0.4,1.4-0.9,2.9-1.3,4.3c-0.7,2.3-2.4,3.8-4.5,4.8c-1.4,0.6-2.8,1-4.2,1.4c-2.2,0.6-4.4,1.1-6.5,1.6c-3.6,1-7.1,2.5-10.1,4.7
		s-5.6,4.9-7.1,8.5c-1.5,3.4-2.1,7.1-2,10.9c0,3.4,1.3,6.2,3.8,8.5c2.2,2,4.7,3.7,7.3,5.2c5.7,3.3,10.8,7.4,15.5,11.9
		c0.5,0.5,1.1,1.1,1.5,1.7c1,1.3,1.9,2.8,2.3,4.5c0.3,1.1,0.2,2.2-0.7,3.2C922.6,566.6,921.5,566.8,920.3,566.7z M936.5,481
		c-2.6-4.5-5.2-9.1-7.8-13.6c-2.7-4.7-5.2-9.5-7.4-14.5c-2.6-5.8-5.2-11.6-7.9-17.4c-1.1-2.6-2.5-5-3.7-7.5
		c-0.6-1.1-1.2-2.3-1.7-3.2c0.1-0.7,0.4-1,0.8-0.7c1,0.5,1.9,1.1,2.8,1.8c2.7,2.2,15.4,12.7,19,15.7c5.1,4.4,10.7,8.2,16.3,11.8
		c4.2,2.7,8.9,4.7,13.8,6.1c1.4,0.4,2.9,0.8,4.3,1.2c0.5,0.2,0.9,0.6,1.4,1c-0.2,0.6-0.3,1.2-0.5,1.6c-1.7,2.3-2.8,4.9-4,7.4
		c-0.7,1.5-1.5,3-2.2,4.5c-1.1,2.6-3,4.2-5.3,5.6c-4.8,2.9-10,4-15.9,3.2C937.7,482.9,937,482,936.5,481z"/>
	<path class="st20" d="M969.2,976.6c-0.7-0.6-1.4-1.1-2.2-1.8c-0.5,0.3-1.1,0.4-1.5,0.7c-1.6,1.5-3.2,3.1-4.8,4.8
		c-1.7,1.8-3.3,3.6-5,5.3c-3.3,3.4-7,6.3-11.6,7.7c-0.2,0.1-0.4,0.2-0.5,0.2c-2.3,0.9-4.3,2.3-5.9,4.1c-1,1.1-2,2.2-3.1,3.3
		c-6.9,7.1-15.2,10.8-25.1,10.9c-1.5,0-3,0-4.5-0.1c-2.5-0.1-4.9-0.3-7.3-0.5c-9.9-1.1-19.8-1.5-29.6-2c-12.5-0.6-25.1-1.6-37.5-3.1
		c-15.7-1.8-30.9-5.6-45.6-11.4c-22.4-8.6-44.1-18.7-65-30.4c-7.3-4.1-14.6-8.4-21.6-13.1c-5.5-3.6-10.9-7.1-16.1-11.1
		c-2.8-2.1-5.8-4.1-8.7-6.1c-1.4-1-2.8-1.9-4.2-2.7c-4.3-2.7-8.8-4.9-13.5-6.9c-3.1-1.3-6-3.1-8.6-5.2c-2.6-2.1-5.2-4.2-7.9-6.4
		c-0.6-0.4-1.2-0.9-1.4-1.7c0.2-0.4,0.3-0.8,0.4-0.9c1.1-0.5,2.4-1.1,3.6-1.5c23.4-7.9,87.6-29.4,96.4-32.3c0.8-0.3,1.9-0.3,2.4-1.2
		c-0.4-0.1-0.6-0.3-0.9-0.3c-1.2,0.3-2.6,0.6-3.8,1c-34.6,9.7-69,20.1-102.8,32.5c-1.8,0.6-3.6,0.8-5.5,0.4c-0.2,0-0.4-0.2-0.4-0.4
		c-0.2-0.4-0.1-0.7,0.4-1c1.5-0.8,2.9-1.7,4.4-2.4c3.6-1.6,104.9-40.4,125.7-48.7c1.6-0.6,3.1-1.3,4.6-2c0.4-0.2,0.4-0.6,0-1
		c-1,0.3-2,0.5-3.1,0.9c-6,2-12.1,4.1-18.1,6c-23.9,8-47.6,16.9-71.4,25.5c-8.1,2.9-16.1,5.9-24.2,9c-6.1,2.3-12.2,4.9-17.8,8.2
		c-0.4,0.3-1.1,0.4-1.5,0.4c-0.3-0.2-0.4-0.2-0.5-0.4c-1.7-2.8-1.8-5.7-0.2-8.5c3.4-5.6,6.5-11.4,10.4-16.6c0.7-0.9,1.3-1.8,1.9-2.7
		c3.2-5.3,7.1-10.1,10.3-15.4c3.6-5.9,7.4-11.7,10.8-17.7c5.2-9.3,10.3-18.7,15.4-28.1c4.8-8.7,10.1-17.1,15.9-25.1
		c4.6-6.4,9.6-12.4,14.8-18.4c0.9-1,1.8-1.9,2.6-2.9c8.6-8.6,17.6-16.9,26.9-24.6c6.4-5.2,13-10.1,19.8-14.8c0.7-0.5,1.5-1.1,2.6-1
		c0.2,0.4,0.5,0.6,0.5,1c0.2,3.3,1.4,6.2,3.1,8.9c0.6,1,1.1,1.9,1.6,3c2.6,4.8,2.3,9.3-0.9,13.7c-1.9,2.7-3.8,5.6-5.7,8.4
		c-3.4,5.2-4.9,10.9-4.4,17c0.3,4.7,2.7,8,6.6,10.5c3.1,1.9,6.5,2.8,10.1,3c4.3,0.2,8.6-0.3,12.9-0.9c3.7-0.5,7.4-1,11.1-1.4
		c3-0.4,6-0.4,9-0.1c1.1,0.1,2.2,0.3,3.3,0.6c0.5,0.1,1,0.5,1.4,0.8c0.4,0.3,0.8,1.6,0.4,2c-0.5,0.8-1.1,1.5-1.7,2.2
		c-1.8,1.7-3.6,3.3-5.3,5c-1.2,1.3-2.4,2.9-3.4,4.4c-1.5,2.3-2,4.9-1.9,7.5c0.2,3.2,1.7,5.7,4.5,7.3c2.5,1.3,5.1,2.4,7.9,2.9
		c2.2,0.4,4.4,0.8,6.6,1.1c2,0.4,4.1,0.7,6.1,1.1c2.9,0.6,5,2.4,6.2,5.2c0.7,1.8,1.4,3.4,2.2,5.1c1.9,3.8,4.9,6.1,9.1,6.7
		c2,0.3,4.1,0.3,6.2,0.2c3.2-0.1,6.4-0.4,9.5-0.5c4.7-0.2,9.4,0.4,13.9,1.1c0.5,0.1,1.1,0.4,1.6,0.5c1,0.4,1.8,1.7,1.6,2.6
		c-0.2,0.9-0.4,1.9-0.8,2.6c-0.4,0.9-0.8,1.7-1.2,2.6c-0.8,1.4-1.7,2.9-2.6,4.5c1.1,0.3,1.9-0.1,2.7-0.4c3.8-1.4,6.3-3.9,7.5-7.8
		c1.3-4.2-1.1-8.4-4.6-9.7c-1.8-0.7-3.6-1.1-5.5-1.3c-4.9-0.6-9.7-0.7-14.6-0.2c-2.8,0.3-5.6,0.7-8.4,0.9c-1.7,0.2-3.4,0.2-5,0.1
		c-1.8-0.1-3.3-0.9-4.5-2c-1-0.9-1.8-1.9-2.4-3.1c-0.6-1.4-1.2-2.7-1.9-4.1c-1.8-3.8-4.8-6.2-8.8-7.1c-1.5-0.4-2.9-0.6-4.4-0.8
		c-1.5-0.3-3-0.4-4.4-0.7c-1.9-0.4-3.6-1-5.4-1.6c-1.4-0.4-2.6-1.3-3.8-2.3c-1.6-1.3-2-3.1-1.6-5c0.5-2.2,1.7-4.1,3.4-5.7
		c2-1.9,4.1-3.8,6.3-5.6c0.7-0.6,1.4-1.2,1.9-2c2.8-3.8,2.6-7.4,0-10.9c-1.1-1.3-2.5-2.3-4.1-2.9c-1.9-0.8-4-1.1-6-1.4
		c-3.9-0.4-7.9-0.5-11.7-0.1c-2.6,0.3-5.2,0.6-7.9,0.9c-3.4,0.4-6.7,0.7-10.1,1c-1.9,0.1-3.7,0-5.6-0.1c-1.3-0.1-2.6-0.4-3.7-1.1
		c-2.1-1.1-3.4-2.8-3.6-5.3c-0.1-1.3,0-2.6,0.2-3.9c0.4-3.4,1.6-6.5,3.4-9.4c1.3-2.3,2.7-4.5,4.1-6.8c0.8-1.5,1.6-3,2.2-4.5
		c1.7-4,1.7-8-0.1-12c-0.7-1.5-1.5-3-2.3-4.5c-0.6-1.1-1.4-2.2-2-3.4c-0.5-1-1-2-1.2-3.1c-0.6-2.2-0.1-4.1,1.6-5.6
		c1.6-1.6,3.5-2.7,5.5-3.9c1.5-0.8,2.9-1.7,4.4-2.5c2.4-1.3,3.5-3.3,3.5-6c0-1.1-0.1-2.2-0.2-3.4c-0.1-1.1-0.2-2.2-0.3-3.4
		c-0.2-2.3,0.4-4.4,1.9-6.3c1.1-1.5,2.3-2.9,3.4-4.4c2.1-2.8,2.9-6,2.7-9.5c-0.3-4.6-1.7-8.8-4.1-12.7c-0.8-1.2-1.7-2.5-2.5-3.7
		c-0.7-1.1-1.4-2.2-1.9-3.4c-1.1-2.4-0.9-4.8,0.5-7c3-4.7,7.4-7.3,12.8-8.4c1.3-0.3,2.6-0.3,3.9-0.4c1.5-0.2,3-0.3,4.4-0.5
		c5.2-1.1,8.3-5.2,8.2-10.6c0-1.9-0.4-3.7-1-5.5c-0.4-1.4-1-2.8-1.4-4.1c0.3-0.8,0.7-1.2,1.3-1.1c2.1,0.6,4.3,1.2,6.4,2
		c6.4,2.3,12.5,4.9,18.6,7.8c14.6,6.7,79.1,38.6,97,47c1.3,0.6,2.6,1.4,4.1,1.6c-0.6-1.4-1.9-1.9-3-2.6c-3.9-2.2-7.9-4.4-11.7-6.5
		c-17.2-9.4-74-38.9-85-44.6c-4.3-2.2-8.6-4.5-13-6.6c-2.8-1.4-5.8-2.5-9-3.3c-2.7-0.6-5.6-1-8.3-0.1c-0.5,0.2-1.1,0-1.6,0
		c-0.4-0.3-0.7-0.5-1-0.8c-2.9-3.2-6.3-5.9-10.1-7.9c-0.6-0.4-1.3-0.8-1.9-1.2c-0.4-0.4-0.5-0.9-0.8-1.3c0.3-0.9,0.9-1.3,1.6-1.5
		c1.7-0.4,3.4-0.3,4.9,0.3c1.4,0.5,2.7,1.2,4.1,1.8c0.7,0.3,1.4,0.4,2.1,0.5c1.1,0.2,2.2-1.1,1.9-2.2c-0.4-1.1-0.9-2.1-1.7-2.8
		c-4.6-4.1-9.8-5.2-15.6-3.1c-1.7,0.6-2.9,1.7-4,3c-2.3,3-2.2,7.1,0.4,9.8c1,1.1,2.2,2,3.4,2.9c1.5,1.1,3.2,2,4.7,3
		c1.1,0.7,2.2,1.5,3.1,2.4c2.1,2.1,3.9,4.5,5.4,7.1c0.8,1.5,1.6,3,1.9,4.7c0.2,1,0.1,1.9-0.4,2.7c-0.6,0.7-1.5,1-2.5,1.1
		c-1.9,0.3-3.7,0.4-5.6,0.6c-7.4,1.1-13.4,4.8-17.6,10.9c-3.5,5-4.1,10.4-0.9,15.9c1,1.6,2,3.2,3.1,4.7c0.9,1.2,1.8,2.4,2.6,3.6
		c1.4,2,2.3,4.2,2.9,6.6c0.9,3.4,0.7,6.7-0.7,9.9c-0.4,0.9-0.7,1.8-1.2,2.6c-2.3,3.6-3,7.6-2.6,11.8c0.2,1.5-0.1,3-0.3,4.5
		c-0.1,1-0.7,1.8-1.6,2.2c-0.4,0.3-1,0.5-1.5,0.7c-6.1,2.5-11.7,5.9-17.8,8.3c-1.6,0.6-3,1.6-4.4,2.4c-4.1,2.3-8,4.9-11.8,7.6
		c-9.4,6.8-18.4,14.1-27,21.9c-6.5,5.9-12.7,12.2-18.3,19.1c-2.4,2.9-4.7,5.8-7.1,8.7c-5.7,7.2-10.5,15-15,23
		c-4.3,7.7-8.2,15.6-11.7,23.6c-6.3,13.9-12.7,27.5-20.3,40.7c-1.7,2.9-3.3,5.9-5.1,8.7c-2.8,4.2-5.8,8.3-8.7,12.4
		c-0.6,0.9-1.3,1.8-2,2.7c-1.9,2.5-1.9,5.2-1.1,8c0.5,1.6,1.5,2.9,1.9,4.7c0.4,1.6,1.2,3.1,1.9,4.6c0,0.9-1.3,1.3-0.6,2.5
		c2.1-0.4,4.1-1.9,6.5-1.6c0.4,0.2,1,0.4,1.4,0.6c0.8,0.5,1.6,1.1,2.2,1.7c2,1.9,4.1,3.9,6,5.9c4.2,4.6,8.9,8.6,15,10.6
		c0.2,0.1,0.4,0.2,0.5,0.2c4.6,2.1,9,4.5,13.2,7.3c4.2,2.8,8.3,5.7,12.4,8.7c1.7,1.2,3.4,2.4,5.1,3.5c1.4,1,2.8,1.9,4.2,2.8
		c4.1,2.7,8,5.5,12.2,8c6.2,3.9,12.6,7.3,19.1,10.8c9.2,5,18.7,9.4,28.3,13.7c14.9,6.5,30.1,12.4,45.6,17.3
		c8.2,2.6,16.6,4.5,25.2,5.5c3.5,0.4,7.1,1,10.6,1.3c4.1,0.4,8.2,0.8,12.3,1.1c11.7,1.1,23.6,1.4,35.3,1.9
		c5.6,0.3,11.2,0.7,16.8,1.6c2.7,0.4,5.6,0.7,8.4,1.1c3,0.4,6,0.4,9,0.1c10.1-1.1,18.7-5,25.3-12.9c1.1-1.3,2.2-2.6,3-3.4
		c2-1.4,3.9-1.8,5.6-2.3c3.1-0.9,5.8-2.4,8.5-4.3c2.9-2.1,5.2-4.9,7.4-7.6c2-2.5,3.7-5.2,4.5-8.3c0.2-0.5,0.4-1.1,0.6-1.6
		L969.2,976.6z"/>
	<path class="st20" d="M1367.1,869.4c8.5-1.5,16.9-3.3,25.2-5.6c7.8-2.2,15.4-4.5,23.1-6.8c6.1-1.9,12-4.2,17.7-7.1
		c11.7-5.8,22.9-12.6,33.7-20.1c12.9-8.9,24.1-19.5,33.8-31.9c1.9-2.5,10.6-13.3,13-16.2c9.1-11.3,19.3-21.4,30.4-30.7
		c5.6-4.8,11-9.5,16.2-14.7c7.9-7.8,13.6-16.9,17.3-27.3c0.9-2.5,1.6-5,1.9-7.6c0.5-3.5,0.4-7.1-0.4-10.6c-1-4.2-3.3-7.5-6.8-10
		c-1.5-1.1-3.2-2-4.9-2.6c-0.7-0.3-1.2-0.8-1.9-1.1c0.3-0.7,0.3-1.2,0.6-1.7c1-1.3,2.1-2.6,3.2-4c2.2-2.8,4.1-5.7,5.8-8.9
		c2.7-5.2,3.5-10.6,2.7-16.3c-0.4-3-0.6-5.9-0.4-8.9c0.2-2,0.2-4.1-0.1-6.2c-0.4-4-0.4-7.9-0.2-11.7c0.1-1.5,0.2-3,0.2-4.5
		c0.2-6-1.1-7.8-6.2-10.9c-1.6-1-3.4-1.7-5-2.5c-4.9-2.2-9.8-4.6-14.4-7.5c-2.8-1.8-5.8-3.4-8.7-5c-7.1-4.1-14.2-8.4-20.6-13.5
		c-3.8-3-15.4-12.6-17.4-14.3c-4.7-3.9-10.1-6.4-16-8c-6.2-1.7-12.5-2.3-18.9-1.6c-3.9,0.4-7.8,1.1-11.6,1.7
		c-5.2,0.9-10.3,1.9-15.4,2.7c-4.2,0.8-8.5,1.3-12.8,1.5c-8.4,0.4-16.9,1-25.2,1.3c-7.9,0.4-15.7,0.8-23.5,1.9
		c-0.7,0.1-1.5,0.1-2.2,0c-0.3,0-0.5-0.4-1-0.8c0-1,0-2,0.1-3.2c0.1-4.3,0.4-8.6,0.4-12.9c-0.2-14.8-1.7-29.6-4.3-44.1
		c-1.4-7.9-3.4-15.7-5-23.6c-1.9-8.8-4.4-17.4-7.9-25.8c-1-2.2-7.7-19.3-10.3-25.5c-5.6-13.5-10.5-27.3-14.9-41.1
		c-2.5-7.7-5.1-15.3-8.2-22.7c-1.7-4.1-3.6-8.2-6-12c-3.5-5.6-7.7-10.6-13.1-14.5c-2.6-1.9-5.5-3.3-8.5-4.2
		c-3.9-1.2-7.7-1.3-11.6-0.2c-1.1,0.3-2,1-3.4,0.8c-0.2-0.4-0.6-0.8-0.7-1.3c-0.5-2.6-0.8-5.2-1.4-7.8c-0.7-3.1-1.5-6.2-2.4-9.3
		c-0.9-3.1-2.5-5.8-4.7-8.2c-2-2.2-4.5-3.3-7.6-1.9c-0.5,0.2-1.1,0.4-1.6,0.4c-0.4,0-0.7-0.2-1.2-0.4c-0.5-1.1-1.2-2.5-1.9-3.9
		c-0.8-1.9-1.5-3.8-2.4-5.7c-0.9-1.9-1.7-3.8-2.7-5.5c-2.2-3.4-5.1-5.9-9.2-6.9c-0.9-0.2-1.8-0.5-2.7-0.7c-2.7-0.6-4.7-2.2-5.8-4.8
		c-0.8-1.9-1.7-3.8-2.6-5.6c-1.1-2.4-2.3-4.7-3.5-7.1c-0.4-0.8-1.1-1.6-1.7-2.3c-0.4-0.4-0.9-0.6-1.3-1c-0.4-0.3-1.3-0.1-1.5,0.3
		s-0.3,0.7-0.4,1.1c0,0.4,0,0.8,0.2,1.1c2.3,5.1,4.6,10.2,7,15.4c0.4,0.7,0.8,1.3,1.1,1.9c1.1,2,2.8,3.4,5,4.3
		c1.9,0.7,3.8,1.5,5.7,2.2c2.2,0.8,4,2.1,5.4,3.9c0.7,0.9,1.4,1.8,2,2.6c2.8,4,5.8,7.8,8.3,12c0.5,1,1.2,1.9,2.5,2.4
		c1.1,0.4,2.6-0.1,3.6,1c2.6,3.5,3.2,4.4,4.4,8.4c1.7,5.4,3.2,10.8,4.1,16.3c1.1,6.3,8.9,66,10.5,77.9c0.1,0.5,0.4,1,0.5,1.5
		c0.8-0.6,0.5-1.4,0.5-2.1c-0.3-9-0.6-18-1.4-26.9c-0.9-9.4-3.7-39.9-4.2-45.9c-0.1-0.7-0.2-1.5,0.6-2.3c1.7-0.2,3.4,0.4,5.3,0.5
		c6,0.5,11.1,3.3,15.4,7.3c2.2,2,4.1,4.3,6,6.6c3.4,4.1,5.8,8.6,7.9,13.5c3.2,7.2,5.9,14.6,8.4,22.1c5.5,16.1,11.2,32.2,17.6,48
		c3.1,7.7,6,15.4,9,23c2.6,6.6,4.7,13.4,6.3,20.4c1.1,4.6,2.1,9.1,3.2,13.7c4.3,18.3,6.6,36.8,7.2,55.6c0.2,5.2,0.3,10.5,0.4,15.7
		c0,0.8-0.1,1.5-1,2.2c-1.5,0.4-3.3,1.1-5,1.6c-7.6,2.3-14.7,5.5-21.5,9.4c-4.6,2.6-8.9,5.6-12.9,8.9c-3,2.6-5.6,5.5-7.9,8.7
		c-0.9,1.2-1.5,2.6-1.6,4.1c-0.1,0.6,0.3,1,1,1.2c1-0.5,1.7-1.3,2.5-2.1c2.8-2.7,5.6-5.5,8.9-7.7c13.7-9.2,28.6-15.4,44.9-18.1
		c5.9-1,11.9-1.6,17.8-2c18.4-1.4,36.4-3.9,54.3-8.6c2.2-0.6,4.3-1.1,6.5-1.6c2.6-0.5,5.1-1.1,7.8-1.5c4.1-0.7,8.2-0.8,12.4-0.5
		c10.6,0.7,20,4.3,28.1,11.3c0.9,0.7,1.7,1.4,2.6,2.2c9.5,8.6,19.9,15.8,31.2,21.8c1.3,0.7,2.6,1.4,3.9,2.2
		c6.8,4.2,13.6,8.6,20.4,12.9c1.6,1,3,2.2,4.4,3.4c0.8,0.7,1.3,1.8,1.9,2.4c0.4,2,0.1,3.7-0.1,5.4c-0.6,7-0.6,13.9,1.6,20.6
		c0.1,0.2,0.1,0.4,0.2,0.5c0.4,1.5,0.5,3,0.1,4.4c-0.7,2.4-0.8,4.8-1,7.2c-0.1,1-0.2,1.9-0.3,2.8c-0.4,4-1.7,7.6-3.6,11.1
		c-2.6,4.8-6.1,9-9.1,13.5c-0.3,0.4-0.7,0.9-1.1,1.1c-2.2,1.6-3.6,3.7-4.5,6c-0.8,0.8-1.5,1.5-2.1,2.1c-0.8,0.8-1.5,1.7-2.6,2.8
		c1.7-0.5,2.6-1.1,3.7-1.9c1.5-1.1,3-2.2,4.6-3.3c0.9-0.6,1.9-1.2,3.3-1.4c2.6,0.3,5.1,1.5,7.4,3.1c2.6,1.8,4.1,4.3,4.7,7.4
		c0.4,2,0.4,4.1,0.3,6.2c-0.3,3-1,5.9-2.1,8.7c-2.8,7-6.3,13.6-11.1,19.4c-3.7,4.5-7.9,8.6-12.2,12.4c-6.9,6.1-13.8,12.1-20.4,18.5
		c-0.5,0.5-1.2,0.8-1.7,1.1c-4-1.3-4-1.3-7.3-0.8c-1.5,0.2-3,0.4-4.4,0.7c-2.4,0.4-4.8,1-7.1,1.4c-23.9,4.6-47.6,10-71.1,16.3
		c-1.8,0.5-3.6,1-5.4,1.6c-0.4,0.2-0.4,0.5,0.1,0.9c1-0.2,34.8-5.6,44.7-7.4c14.4-2.6,28.7-5.4,43.1-8.1c0.5-0.1,1.1-0.3,1.7-0.3
		c0.4,0,0.6,0.3,1.1,0.4c-0.2,0.5-0.2,1.1-0.5,1.5c-3.1,4.2-15.8,21.4-19.1,25.7c-7.4,10-16.1,18.7-26.1,26.1
		c-8.9,6.5-18.2,12.5-27.7,18.1c-16.7,9.8-34.1,18.1-52.7,23.6c-0.5,0.2-24.7,8.1-36.3,11.9c-0.5,0.2-0.9,0.4-1.4,0.7
		C1360.1,870.8,1363.6,870,1367.1,869.4z"/>
	<path class="st20" d="M1119.8,851.6c-6.5-9.2-13.6-17.9-20.7-26.6c-2.6-3.2-5.3-6.4-8.4-9.1c-0.4-0.4-0.9-0.5-1.8-1.1
		c0.4,0.9,0.4,1.3,0.8,1.8c3,4.3,5.9,8.6,9,12.9c4.7,6.4,9.4,12.6,14.1,18.9c1,1.3,2.1,2.6,2.6,4.2c-1.1,1.2-2.5,0.4-3.7,0.6
		c-1.5,0.2-2.9,0.4-4.9,0.7c-0.4-3.1-2.6-5.2-4.4-7.5c-0.6-0.7-1.3-1.3-1.9-2c-3.3-3.4-6.6-6.6-9.9-10c-5.6-5.7-11.3-11.5-17.3-16.9
		c-1-0.9-1.9-1.8-2.9-2.6c-2.9-2.9-6.1-5.6-9.3-8.2c-1-0.8-1.9-1.9-3.2-2.2c1.1,1.5,2.2,3,3.4,4.4c6,6.6,11.9,13.4,18.3,19.8
		c2.8,2.7,17.2,18,21.8,22.7c1.1,1.1,2.3,1.9,3.4,2.8c0.3,0.2,0.3,0.6,0.4,1.1c-1.8,1.5-3.9,2.1-6,2.6c-3.4,0.7-6.6,1.1-10.1,0.1
		c-2-1.9-4-4-6-5.8c-2.2-2-4.4-4.1-6.6-6.1c-0.2-0.1-0.3-0.3-0.4-0.4c-5.3-5-10.5-10.1-15.9-15.1c-5.2-4.9-10.6-9.4-15.9-14.2
		c-1.1-1-2.3-1.9-3.4-2.9c-1.8-1.4-3.5-2.7-5.6-3.8c-2.7-1.6-5.5-3.3-8-5.1c-5.4-3.8-10.9-7.2-16.7-10.4c-8.8-4.9-18-9.1-27.4-12.9
		c-0.8-0.3-1.6-0.9-2.5-0.4c0.4,1,1.3,1.3,2.1,1.8c5,2.5,9.9,5.3,14.6,8.3c8.4,5.3,16.6,10.9,24.5,16.8c6.2,4.6,12.3,9.2,18.4,13.8
		c1.1,0.8,2.1,1.6,3.3,2.2c0.6,0.4,1.3,0.7,2,0.9c0.7,0.2,1.4,0.3,2.1-0.2c0.4-0.3,1.1-0.4,1.6-0.5c2.2,1.9,4.1,3.8,6.2,5.8
		c4.9,4.9,20.8,20.6,23.9,23.7c0.1,0.1,0.3,0.3,0.4,0.4c0.2,0.4,0.3,0.7,0.4,1c0.1,0.4-0.9,0.7-1.4,0.5c-5.7-2.5-10.9-5.8-15.3-10.3
		c-2.1-2.1-3.8-4.6-5.6-7c-1.9-2.6-3.8-5.1-5.7-7.6c-1.1-1.6-2.7-2.6-4.5-3.2c-1.1-0.4-2.1-0.7-3.3-0.9c-4.2-0.8-8.3-2.2-12.4-3.6
		c-4.8-1.7-9.5-3.4-14.3-5c-3.9-1.4-7.8-2.8-11.4-4.8c-0.6-0.4-1.3-0.6-2-0.9c-0.5-0.2-1-0.7-1.9-0.4c5,4.3,10,8.6,15.7,12
		c8.1,4.8,16.6,8.6,25.9,10.2c0.5,0.1,1.1,0.3,1.5,0.4c1.7,0.9,2.8,2,3.9,3.4c1.1,1.3,2,2.7,3,4.1c2.7,3.8,5.8,7.3,9.4,10.4
		c6,5.2,12.6,9.4,20.2,11.8c5.3,1.8,10.6,2.1,16.1,1.2c4.3-0.7,8.3-2.1,11.8-4.9c0.7-0.5,1.6-1,2.4-1.4c1.9,0.1,3.8,0.4,5.6,0.4
		c2.2,0,4.5,0.1,6.7-0.2c3.8-0.4,7.3-1.6,10.2-4.1c0.9-0.7,1.8-1.3,2.7-2c0.4-0.6,0.8-1.2,1.2-1.9c2.2-3.1,5-5.6,8.5-7.1
		c2.7-1.2,5.4-2.6,8.2-3.7c3.1-1.3,6.3-2.6,9.4-3.8c5.7-2.3,11.1-5.4,16.1-9.2c4.8-3.6,9.4-7.5,13.3-12c5-5.6,8.8-12.1,11.9-19
		c7.8-17.6,10.9-36.1,10.5-55.2c0-2-0.4-4.1-0.6-6.2c-1.2-7.7-4-14.8-7.4-21.7c-1.3-2.6-2.8-5.3-4.7-7.6c-1.9-2.4-3.3-5-4.1-7.9
		c-1.6-5-3.3-10-4.8-15c-2.9-10.2-5.6-20.6-8.4-30.9c-2.6-9.6-4.9-19.2-6.4-29c-0.1-0.4-0.3-0.7-0.4-1.1c-0.2-0.7,0.1,0.5-0.6-0.1
		c0.1,2.2,0.2,4.2,0.4,6.3c1.1,13.1,3,26,5.7,38.8c2.2,10.1,4.9,20,7.9,29.8c0.2,0.7,0.4,1.4,0.4,2c-0.2,1.5-0.4,2.7-0.5,4.1
		c0.4,0.9,0.7,1.8,1.2,2.6c2.6,3.4,4.3,7.4,6.4,11.2c4.9,9.1,7.1,18.9,7.1,29.1c0,0.7-0.1,1.5-0.6,2.1c-0.4-0.1-0.9,0-1-0.2
		c-0.6-0.9-1.2-1.9-1.7-2.8c-3.4-7.1-6.7-14.2-10-21.4c-7.8-16.9-15.8-33.5-23.9-50.1c-0.5-1.1-1-2.4-1.9-3.4
		c-0.5-0.5,0.3,0.4-0.6,0.1c0.6,1.7,1.2,3.3,1.9,4.8c8.7,22.1,18.2,43.9,28,65.6c2.8,6.3,5.5,12.7,9.2,18.6c-0.1,1.5-0.2,3-0.4,4.5
		c-1.6,13.1-5.8,25.5-12,37.1c-2.7,5.1-6.1,9.9-10.1,14c-1.7,1.8-3.4,3.4-5.2,5.1c-6.5,6.2-13.8,11.6-22.1,15.3
		c-1.3,0.6-2.7,1.1-4.1,1.7c-0.3,0.1-0.7-0.1-1.1-0.2c-1.1-1.1-1.9-2.2-2.5-3.6c-0.3-1.1,0.4-2.3-0.4-3.5c-1.2-1.1-2.6-2.4-4.1-3.4
		c-3.7-2.5-7.1-5.4-10.7-8.2c-4.2-3.4-8.2-7.1-12-11c-6.5-7-12.4-14.6-17.1-22.9c-2.4-4.2-4.6-8.6-6.9-12.9
		c-1.5-2.8-3.2-5.6-4.8-8.3c-0.9-1.5-2-2.6-3.4-3.7c-2.5-2-5.3-2.7-8.4-2c-1.5,0.4-2.9,0.8-4.3,1.1c-1.3,0.4-2.6,0.3-3.9-0.3
		c-2.4-1.1-4.8-2.2-6.8-3.9c-1.3-1.1-2.4-2.4-2.6-3.7c-0.3-2.1,1.3-3.5,1-5.3c-0.2-1-0.8-1.7-1.6-2.2c-1.1-0.7-2.2-1.4-3.3-2.1
		c-1.9-1.4-2-3.8-0.4-5.3c1.2-1.1,2.6-2.1,4-3.2c0.5-0.4,1.4-0.6,1.4-1.5c-0.3-0.3-0.4-0.7-0.7-0.8c-2-0.9-4-0.8-6,0
		c-1.6,0.7-2.9,1.7-4.1,3c-2.5,2.6-2.8,5.6-1.4,8.8c0.4,1,1.1,1.9,1.8,2.8s1.4,1.8,2,2.5c0,1,0.1,1.7,0.1,2.5c0,2.8,1.1,5.1,3.1,7
		c0.8,0.8,1.7,1.5,2.6,2.2c1.5,1.1,3,2.2,4.4,3.1c1.8,0.7,3.4,1.3,4.9,1.9c1.9,0.7,4,0.9,6.1,0.5c1.1-0.2,2.2-0.4,3.4-0.5
		c1.6-0.2,3,0.4,4.1,1.5c0.7,0.6,1.3,1.4,1.8,2.1c1.3,2,2.6,4.1,3.8,6.3c3.9,6.9,8,13.5,12.4,20c4.4,6.5,9.2,12.8,14.7,18.4
		c7.1,7.2,15,13.5,24,18.4c0.8,0.4,1.7,1,2.3,1.6c1.5,1.7,2.7,3.5,3.8,5.5c0.2,0.4-0.1,1.2-0.5,1.5c-0.9,0.4-1.7,0.9-2.6,1.1
		c-3.4,1-6.6,2.6-9.4,4.9c-0.3,0.2-0.7,0.2-1.1,0.2c-1.2-0.6-1.9-1.9-2.6-2.8c-2.1-2.9-4.1-5.8-6.2-8.6c-0.4-0.6-0.9-1.2-1.8-1.3
		c0.2,1.3,1,2.3,1.6,3.4c2.1,3.4,4.1,6.6,6.2,10c0.5,0.8,0.8,1.7,0.5,2.6c-3.4,3.9-6.1,4.9-11.5,4.6
		C1120.7,852.8,1120.2,852.2,1119.8,851.6z"/>
	<path class="st20" d="M1241.7,1095.8c-0.1,0.5-0.4,1.1-0.4,1.6c0.1,1.3,0.4,2.6,0.6,3.9c3.5,19.4,8.9,38.3,16.1,56.6
		c0.3,0.7,0.5,1.4,0.6,2.1c0.1,0.3-0.2,0.6-0.4,1.1c-0.5-0.2-1.1-0.2-1.6-0.4c-2-1-4-2.1-6-3.1c-6.7-3.4-13.2-7-19.7-10.9
		c-9.6-5.7-19.1-11.7-28.7-17.6c-2.7-1.7-5.5-3.4-8-5.1c-5.8-4.1-11.7-8-17.3-12.4c-1.9-1.5-3.8-3-5.8-4.4c-3.4-2.4-6.8-4.7-10.2-7
		c-1-0.6-2-1-3.2-0.5c-0.2,0.4-0.4,0.6-0.5,1c0.3,0.4,0.5,1,0.9,1.3c3.5,3.1,7,6.3,10.5,9.3c3.7,3.2,7.5,6.2,11.3,9.3
		c5.1,4.1,10.5,7.8,16,11.5c3.7,2.6,7.7,4.8,11.4,7.1c8.8,5.7,17.8,11,26.9,16.1c15,8.4,30.4,16.1,46.2,22.9
		c13.2,5.6,26.7,10.7,40.7,14.6c10.7,3,21.5,4.7,32.6,4.9c3.4,0.1,6.7,0,10.1,0c10.8-0.2,21.3-1.9,31.4-5.4
		c3.4-1.1,6.7-2.4,10.1-3.6c4.4-1.5,8.8-3.1,13.3-4.5c5-1.6,10.2-2.3,15.5-0.9c0.2,0.1,0.4,0.1,0.5,0.1c3.8,0.7,7.1-0.4,9.8-3
		c4.1-3.9,6.7-8.6,7.3-14.2c0.4-4.3,0.3-8.6-1.1-12.8c-0.5-1.8-1.1-3.6-1.7-5.4c-0.6-1.9-0.7-3.6-0.4-5.6c0.1-0.5,3.9-21.5,5.7-31.5
		c0.7-3.7,1.6-7.3,2.4-10.9c0.5-2.2,1.2-4.3,2.2-6.4c2.6-5.4,5.4-10.7,8-16.1c7.8-16.3,13.4-33.3,16.9-51
		c2.6-13.5,3.3-27.1,2.1-40.8c-0.4-4.5-0.8-8.9-1.4-13.4c-1.8-13.2-4.3-26.2-8.7-38.8c-5.2-15-11-29.8-17.2-44.5
		c-0.2-0.5-5.7-11.6-8.3-16.6c-0.3-0.5-0.6-1-1.3-0.9c0.1,0.5,0.1,1.1,0.3,1.6c2.9,9.4,5.9,18.9,9.4,28.2c2.7,7.6,5.5,15.2,8.1,22.8
		c6.6,19,10.9,38.6,12.6,58.6c1.6,17.3,0.6,34.4-3.7,51.3c-1.9,7.8-4.2,15.5-6.9,23.1c-1.8,4.9-3.7,9.8-6,14.5c-1.5,3-3,6-4.3,9.1
		c-2.5,5.6-5.2,11.2-8.1,16.7c-1.1,2.1-2.3,4.3-3.4,6.4c-3.1,5.8-5.4,11.9-6.3,18.5c-0.1,0.4-0.1,0.7-0.3,1.1
		c-0.2,0.5-0.6,0.9-1.4,0.7c-0.5-0.5-1.2-1.2-1.9-1.9c-4.6-5.4-49.8-59.1-57.5-68.2c-2.2-2.6-4.1-5.4-6.7-7.5
		c-0.2-0.2-0.5-0.1-1-0.1c0.9,1.3,12,16.8,16.7,23.4c10.1,14.4,20.4,28.6,31.9,42c3.2,3.7,6.3,7.4,9.6,11c2.6,2.8,5.5,5.6,9.4,7
		c0.3,0.1,0.4,0.5,0.9,1.1c0.4,2.7,0.8,5.7,1,8.6c0,0.3-0.4,0.5-0.6,0.7c-0.1,0.1-0.4,0-0.5-0.1c-0.4-0.4-0.9-0.7-1.2-1.1
		c-7.5-9.5-56.7-73.2-73.8-95.5c-0.5-0.7-1.3-1.2-2-1.9c-0.1,0-0.3,0.1-0.5,0.2c0.8,1.3,7.1,10.9,9.5,14.6
		c15.4,23.6,31.5,46.9,49.1,69.1c4.7,5.9,9.3,11.8,14.3,17.3c1.4,1.5,2.7,3.1,4.6,4.1c1.1,0.2,2.1,0.4,3.3,0.6
		c1.2,2.2,1.9,4.5,2.4,6.9c0.4,2,0.7,4.1,0.9,6.1c0.4,5.1-1.2,9.5-4.4,13.5c-2.4,3-5.1,4.7-9.1,4.4c-5.5-0.4-10.9,0.6-16.1,2
		c-3.8,1.1-7.5,2.3-11.2,3.6c-3.2,1.1-6.4,2.3-9.5,3.4c-9.6,3.4-19.5,5.2-29.6,5.6c-5.5,0.2-10.9,0.2-16.2-0.1
		c-9.2-0.4-18.3-1.9-27.1-4.5c-6.1-1.8-12.2-3.8-18.1-6c-11.7-4.3-23.1-9.6-34.5-15c-2.6-1.2-5.1-2.2-7.5-3.9
		c-0.3-0.5-0.5-1.1-0.6-1.6c-0.5-3.2-1.6-6.2-2.6-9.2c-1.5-4.2-3-8.5-4.3-12.7c-4.5-13.9-9.1-27.8-12.7-41.9
		c-0.3-0.9-0.4-1.9-1.1-2.5L1241.7,1095.8z M1445.9,1132.2c-0.7-6,0-11.8,2.1-17.5c0.1-0.4,0.4-0.6,0.7-0.9c0.1-0.1,0.4-0.2,0.5-0.1
		l0.4,0.3c0.1,0.4,0.3,0.7,0.2,1.1c-0.8,5.6-1.5,11.4-2.3,17c-0.1,0.5-0.3,1.1-1.1,1C1446.2,1132.8,1446,1132.6,1445.9,1132.2z"/>
	<path class="st20" d="M1257.1,763.3c3.4-1.1,6.8-2.1,10.2-3.1c11.6-3.2,23.2-6,34.9-8.4c5.3-1.1,10.7-1.9,16.1-2.8
		c4.2-0.7,8.6-1,12.9-1.1c1,0,1.9,0,3.1,0.8c1.7,1.9,3.6,4.1,5.2,6.4c0.5,1.3,0.6,2.4,0.4,3.5c-0.4,1.5-0.8,2.9-1.6,4.1
		c-0.4,0.8-0.9,1.7-1.3,2.5c-1.1,1.8-2.2,3.4-3.3,5.2c0.4,0.1,0.8,0.3,1.1,0.2c2.2-0.7,3.9-2.1,5.4-3.9c1.6-1.9,2.7-4,3.8-6.3
		c1.5-3.3,1.5-6.5-0.4-9.6c-0.6-1-1.1-1.9-1.5-3c-0.4-1,0.4-2.5,1.3-2.7c1.9-0.4,3.7-0.4,5.6-0.4c1.7,0.1,3.4,0.2,5,0.2
		c4.2,0,8.1-1,11.7-3.3c3.2-2,5.1-4.9,6-8.5c0.6-2.7,0.1-5.2-1.9-7.3c-0.9-1-1.9-1.8-2.9-2.6c-0.8-0.7-1.7-1.5-2.5-2.2
		c0.1-0.6,0-1.2,0.2-1.7c0.4-0.8,1.1-1.6,1.6-2.3c2.9-3.8,3.8-8,3-12.7c-0.4-2.6-1.1-5.1-2-7.6c-1.7-4.5-4.4-8.2-8-11.3
		c-3.8-3.2-7.9-5.6-12.4-7.8c-8.9-4.2-18.4-6.4-28.1-7.1c-3.2-0.3-6.4-0.3-9.5-0.4c-2.8-0.2-5.6-0.4-8.4-0.7
		c-1.9-0.2-3.7-0.8-5.4-1.6c-1.4-0.7-2.3-1.9-2.5-3.5c-0.1-0.9-0.1-1.9,0.2-2.7c0.3-1.5,1-2.8,1.9-4c0.9-1,1.8-1.9,2.7-2.7
		c3.9-3.3,7.8-6.4,11.7-9.6c2.6-2.1,5-4.5,7.2-7.1c5.3-6.1,7.4-13.3,7.4-21.3c0-4.2-1.1-8.1-3.4-11.7c-0.9-1.4-1.9-2.7-2.9-4.1
		c-1.1-1.3-2.1-2.6-3.2-4c-0.6-0.7-1.1-1.6-1.1-2.8c0.3-0.8,0.6-1.9,0.8-3c0.2-1.1,0.4-2.2,0.3-3.4c-0.4-4.4-2-8.4-5.4-11.5
		c-2.7-2.6-5.7-4.9-9.2-6.4c-1.9-0.9-3.7-1.8-5.6-2.6c-0.6-0.4-1.2-0.9-1.8-1.3c-0.5-0.4-0.5-1.5,0-2c0.7-0.6,1.5-1.1,2.5-1.1
		c1.1,0,1.3,1.6,2.5,1.1c0.7-0.4,1-1.1,1.1-1.9c0.4-1.9-0.5-3.4-2.2-4.1c-3.3-1.2-6.3-0.9-9.1,1.1c-0.9,0.6-1.7,1.4-2.6,2.2
		c-1.1,1-2.1,2.1-3.3,3c-4.1,3-7.7,6.5-10.9,10.5c-3.6,4.3-7.2,8.6-11,12.8c-6.1,6.6-11.7,13.6-17.4,20.6c-1.5,1.9-3,3.8-4.4,5.8
		c-5.6,7.9-11.6,15.7-16.9,23.8c-0.3,0.4-0.9,0.9-0.7,1.8c0.8-0.9,36.8-40.7,43.6-47.9c3.7-4,7.5-7.9,11.3-11.7
		c2.1-2.1,4.3-4.1,6.6-6.1c1.2-1.1,2.4-2.4,4.4-2.9c2.6,1.1,5.4,2.1,8.1,3.2c1.1,0.4,2.1,0.9,3.1,1.3c1.1,0.6,2.3,1.2,3,2.4
		c0.2,0.8-0.1,1.5-0.7,2c-1.2,1.1-2.6,2.2-3.8,3.4c-5.9,5.5-11.2,11.6-16.9,17.3c-5.5,5.6-10.8,11.5-16.1,17.2
		c-0.5,0.5-1.1,1.1-1.6,1.6c-4.1,4-7.6,8.3-11.1,12.6c-0.4,0.5-1.2,1.1-1,2.1c4-4.1,7.9-8,11.9-12c4.2-4.2,8.5-8.4,12.6-12.8
		c5.6-6,11.5-11.8,17.5-17.4c3.7-3.4,7.6-6.7,11.4-10.1c0.9-0.8,2.3-0.5,3,0.4c0.9,1.2,1.6,2.6,1.9,4.1c0.4,1.9,0.1,3.8-1.1,5.3
		c-1.1,1.3-2.3,2.5-3.5,3.6c-4.7,4.3-9.4,8.6-13.5,13.4c-0.9,1-1.8,1.9-2.6,2.9c-4.4,4.3-8.3,9.2-12.3,13.9
		c-0.6,0.7-1.3,1.3-1.5,2.6c3.1-2.6,6-5.2,9-7.8c6.5-5.6,13.1-11,19.3-17.1c1.5-1.4,3.1-2.7,4.7-4.1c0.3-0.2,0.7-0.2,1.1-0.3
		c0.4,0.2,0.7,0.3,1,0.5c2.9,3.2,5.3,6.8,7.4,10.6c0.9,1.7,1.5,3.4,1.8,5.3c0.6,6.2-0.6,11.9-4.4,16.9c-1.7,2.2-3.6,4.3-5.8,6
		c-1.6,1.2-3.3,2.6-4.9,3.9c-3.4,2.7-6.7,5.5-9.4,8.7c-1.2,1.4-2.4,2.9-3.4,4.5c-1.9,3.2-2.4,6.6-1.3,10.2c0.4,1.7,1.4,3.1,2.7,4.1
		c1.4,1.2,3.1,2.1,4.9,2.6c2.9,0.8,5.9,1.1,8.9,1.2c4,0.2,7.9,0.3,11.8,0.4c10.1,0.4,19.6,3,28.7,7.1c4.6,2.1,8.8,4.9,12.7,8.2
		c5.2,4.6,7.9,10.4,8.7,17.1c0.4,3.4-0.6,6.3-3.2,8.6c-1.1,1-2.2,2-3.2,3.2c-1.1,1.2-1.1,3.4,0.1,4.7c1.1,1.1,2.2,2,3.3,3.1
		c1,0.9,1.9,1.8,2.7,2.7c1.1,1.2,1.1,2.8,0.4,4.2c-1.4,2.8-3.5,4.9-6.7,5.6c-1.4,0.4-2.9,0.5-4.4,0.5c-1.9,0-3.7-0.2-5.6-0.3
		c-2.5-0.1-4.9-0.2-7.3-0.1c-3.1,0.1-5.9,0.7-8.3,2.9c-0.3,0.3-0.7,0.3-1,0.4c-2.8,0.3-5.6,0.4-8.4,0.9c-2.7,0.4-5.6,1-8.3,1.5
		c-5.1,1.1-10.3,2-15.4,3.2c-12.4,2.7-24.7,6.1-36.5,10.9c-3.4,1.4-6.9,3-10.2,4.5c-0.4,0.2-0.4,0.6,0.1,1
		C1254.9,763.9,1256,763.6,1257.1,763.3z"/>
	<path class="st20" d="M936.2,887c-1.3,1-2.7,1.9-4.1,2.8c-12.7,8.3-25,17.1-37.1,26.3c-2.4,1.8-4.6,3.8-6.8,5.8
		c-0.8,0.7-1.4,1.8-1.9,2.7c-0.4,0.8-0.4,1.8,0.2,2.6s1.9,1.1,3,0.7c0.7-0.3,1.4-0.5,2-1c1.6-1.1,3.1-2.1,4.6-3.3
		c3.5-2.7,7-5.6,10.6-8.4c14.2-10.9,28.5-21.8,42.4-33.2c5.4-4.4,10.8-8.7,16.7-12.3c0.1-0.1,0.1-0.4,0.2-0.5
		c-1-0.2-1.8,0.3-2.6,0.5c-10.6,3.8-21,7.9-31.2,12.7c-17.6,8.2-34.7,17.6-51.5,27.4c-4.2,2.5-8.3,5.1-12.2,8.1
		c-1.3,1.1-2.6,2.1-3.6,3.5c-0.5,0.7-1.1,1.5-2,1.9c-4.1,1-8.3,2-12.5,3c-2.2,0.4-4.4,0.9-6.6,1.1c-4.1,0.4-8.2-0.3-12.2-1.7
		c-4.7-1.8-7.9-4.9-8.9-10c-0.4-2-0.6-4.1-0.7-6.1c-0.2-4.6,0.7-8.9,2.2-13.2c2.9-8.4,7.1-16.1,12.7-22.9c4.5-5.5,10-9.6,16.4-12.4
		c1.5-0.7,3.1-1.3,4.7-2c0.8-0.4,1.6-0.9,2.4-1.5c1.3-1,1.9-2.7,1.2-4.6c-0.3-0.7-0.7-1.3-1.5-1.4c-0.4,0-0.7,0.3-1,0.4
		c-0.5,0.8-0.6,1.8-1.9,2.6c-0.3,0.1-0.9,0.4-1.6,0.6c-1.6,0.5-3.2,1-4.8,1.6c-8.5,3.1-15.5,8.1-21,15.4c-2,2.7-3.8,5.6-5.5,8.5
		c-3.1,5.4-5.5,11-7.1,17c-1.5,5.7-1.8,11.5-0.8,17.3c0.4,2.2,1,4.4,1.9,6.4c1.9,3.8,4.5,6.8,8.5,8.6c2,1,4.1,1.8,6.4,2.3
		c5.4,1.3,10.8,1.6,16.1,0.4c3.4-0.7,6.9-1.7,10.4-2.4c2-0.4,4.1-0.8,6.1-1c1.6-0.2,2.9,0.5,3.8,1.9c0.9,1.4,1.6,3,2.4,4.5
		c0.7,1.3,1.5,2.6,2.6,3.7c2.6,2.6,5.8,4,9.5,4.3c3.2,0.3,6.4-0.1,9.4-0.9c6.9-1.8,13.9-2.9,21-3.9c4.7-0.6,9.2-1.8,13.5-3.6
		c0.4-0.2,0.4-0.5,0.1-0.9c-1.1-0.5-2.2-0.4-3.3-0.6c-10-1.5-19.8-0.5-29.4,2.4c-1.8,0.5-3.6,1.1-5.4,1.4c-2,0.4-4.1,0.6-6.2,0.4
		c-3.4-0.3-6-1.9-7.6-5c-0.7-1.3-1.2-2.7-1.9-4.1c-0.7-1.3-1.4-2.6-2-3.6c0.1-1.8,1.2-2.6,2.3-3.4c4.5-3.6,9.2-7.1,14.1-10.1
		c15-9.3,30.5-17.5,46.1-25.8c0.6-0.4,1.3-0.5,2-0.8C936.9,886.3,936.7,886.7,936.2,887z"/>
	<path class="st20" d="M1208.7,400.5c0.4-1.6-0.4-2.9-0.9-4.3c-6-18.5-11.1-37.3-15.7-56.2c-2.5-10.1-4.8-20.4-6.5-30.8
		c-0.4-2-0.7-4.1-0.4-6.1c0.3-1.7-0.1-3.4-1.1-4.9c-0.3-0.4-0.4-1-0.6-1.5c1.2-1.6,3-2.4,4.5-3.4c9-6.1,17.6-12.8,25.1-20.7
		c2.5-2.6,4.9-5.1,7.3-7.8c0.5-0.5,1-1.1,1.8-1.1c0.8,0.4,0.8,1.2,0.9,1.9c0.1,7.1,0.8,14.2,1.6,21.3c1.7,14.3,3.3,28.7,5.1,43
		c2.7,21.5,6.2,43,10,64.4c0.2,0.9,0.1,1.9,0.8,2.6c0.1-0.4,0.4-0.6,0.4-0.9c-0.2-1.9-6.3-57.4-9.1-83.2c-2-19-3.4-38-4.5-57.1
		c-0.4-0.5-0.6-1-1.1-1.4c-0.8-0.8-1.1-0.8-2.4-0.1c-0.4,1.2-0.7,2.5-1.1,3.7c-0.6,0.5-1.1,1-1.7,1.5c-2.9,2.3-5.6,4.9-8.4,7.4
		c-2.8,2.7-5.5,5.6-8.5,8.1c-4.9,4.1-9.9,7.9-15.2,11.6c-8.1,5.7-16.5,11-24.9,16.3c-21.1,13.2-41.2,27.9-59.6,44.8
		c-6.1,5.6-11.9,11.4-17.2,17.6c-4.3,5.2-8.5,10.5-11.7,16.4c-2.4,4.2-4.8,8.5-7.1,12.8c-3.6,7-7.3,13.9-10.3,21.2
		c-2,4.9-3.8,9.8-5.2,14.8c-0.1,0.4-0.4,1,0.4,1.3c0.4-0.6,0.9-1.1,1.2-1.8c0.8-1.5,9.7-17.9,13.5-24.6c2.8-5,5.9-10,8.7-15.1
		c2.3-4.1,5.2-7.8,7.8-11.6c2.4-3.6,5.1-6.9,8.1-10.1c1.1-1.1,2.1-2.1,3.1-3.3c8.5-9.3,17.6-17.9,27.1-26
		c17.2-14.8,35.7-27.8,55.1-39.6c0.6-0.4,1.3-0.6,2-0.9c0.1-0.1,0.4,0.1,0.6,0.2c0.2,1.8,0.3,3.6,0.5,5.5c0.3,2,0.7,4.1,1.1,6.1
		c2.5,13.1,5.6,25.9,9.1,38.8c4.3,16.1,9.5,31.9,15.2,47.6c0.4,1.2,0.7,2.6,1.8,3.4L1208.7,400.5z"/>
	<path class="st20" d="M1173.5,1020.3c0.5,4.5,0.6,9,0.3,13.4c-0.5,6.5-1.4,13.1-2.8,19.4c-1.9,9-5.2,17.6-9.4,25.8
		c-2.7,5.4-6.4,10.1-10,14.9c-1.8,2.4-3.7,4.7-5.8,6.9c-5.3,5.6-10.8,10.9-16.1,16.4c-3.3,3.3-6.8,6.4-10.1,9.8
		c-3.8,3.9-7.7,7.7-11.3,11.7c-5.4,6-10.5,12.2-16.1,18c-4.6,4.8-9.3,9.3-14.4,13.3c-21,16.6-44.8,26.1-71.4,28.6
		c-3.7,0.4-7.5,0.4-11.2,0.1c-3.4-0.3-6.7-0.9-9.9-1.9c-1.4-0.4-2.7-1.1-4.2-1.6c-1.6-0.4-3.3-0.7-4.9-1c-0.7-1.1-1.2-2.1-1.9-2.9
		c-2.7-3.4-6.6-4.2-10.6-2.4c-0.8,0.4-1.7,0.9-2.3,1.5c-1.1,1.1-2.1,2.1-2.9,3.4c-1.5,2.1-2.9,4.4-4.3,6.6c-2.2,3.5-4.7,6.8-7.8,9.6
		c-4.1,3.6-8.6,6.6-13.3,9.3c-0.6,0.4-1.3,0.6-2,0.9c-0.7,0.2-1.5,0.2-2-0.5c-0.4-0.4-0.6-0.4-1-0.1c-0.9,1-0.7,2-0.1,3.1
		s1.6,1.5,2.7,1.8c1.3,0.3,2.6,0,3.9-0.4c2.9-0.8,5.6-2.2,8.1-3.9c7.2-4.7,12.8-10.9,17.2-18.2c1.1-1.9,2.3-3.9,3.4-5.8
		c0.6-1,1.4-1.8,2.4-2.4c1.9-1.2,5-1,6.1,1.8c0.5,1.4,1.1,2.7,1.5,3.9c1.9,1.8,3.9,0.4,5.8,0.8c0.5,0.2,1.3,0.4,1.9,0.7
		c2.7,1.4,5.6,2.1,8.6,2.6c3.7,0.7,7.4,0.9,11.2,0.9c5.8-0.1,11.6-0.7,17.3-2c4.6-1.1,9.1-2.2,13.6-3.4c6.7-1.8,13.1-4.3,19.3-7.5
		c5.4-2.7,10.6-5.6,15.7-8.7c4.8-2.9,9.4-6.2,13.6-9.9c4-3.4,7.8-7,11.6-10.6c5.9-5.7,11.6-11.6,17.2-17.7c3.6-4,7.5-7.9,11.4-11.6
		c3.4-3.3,16.6-15.4,19.8-18.4c3.3-3.1,6.4-6.2,9.6-9.4c4.7-4.9,8.8-10.2,12.6-15.8c2.1-3.1,4.1-6.3,5.7-9.6
		c6.1-12.5,9.9-25.9,11.5-39.7c0.7-6.4,0.3-12.7-0.9-19c-0.4-2-1-4-1.7-5.9c-1.2-3.2-3-6-5.6-8.3c-0.4-0.4-0.9-0.4-1.7-0.9
		C1172.1,1010.6,1172.9,1015.4,1173.5,1020.3z"/>
	<path class="st20" d="M1124.3,478.5c-0.7,2.1-1.4,4.2-2,6.4c-1.9,7.2-3.8,14.5-5.6,21.7c-6.2,24.4-10.5,49.1-13.9,73.9
		c-0.1,0.7-0.1,1.4-0.1,2.1c0.8-0.2,1.1-0.7,1.1-1.2c3.8-14.8,7.6-29.7,11.4-44.6c4.6-18.2,8.9-36.4,14-54.4
		c0.5-1.8,1.1-3.6,1.6-5.4c0.1-0.4,0.4-0.5,1-0.4c0.3,0.4,0.6,0.9,0.8,1.3c1.2,4,4,6.7,7.3,8.9c1.9,1.2,3.8,2.4,5.8,3.4
		c4.1,2.1,8.5,4.1,12.6,6.1c0.6,0.4,1.2,0.8,1.6,1.1c0.9,1.2,0.9,2.4,1,3.5c0.2,2.2,0.2,4.5,0.5,6.7c0.7,4.8,3.1,8.4,7.7,10.3
		c0.7,0.3,1.3,0.7,2,0.9c9.4,3.3,18.9,4.6,28.7,1.6c3.4-1.1,6.8-2.1,10.1-3.2c3.2-1,6.4-2,9.6-3c7.1-1.9,14.3-2.8,21.7-2.5
		c3.4,0.2,6.7,0.5,10,1.3c4.2,1.1,8.2,2.6,11.6,5.5c0.9,0.7,1.9,1.3,2.7,1.9c0.5,0.4,1.6-0.3,1.8-1c0.2-1,0.1-1.9-0.3-2.7
		c-1.2-3.5-3.4-6.2-6.6-8c-3.6-2.1-7.4-3.5-11.6-4.2c-9.4-1.6-18.6-1.4-27.8,1.1c-4.1,1.1-8.2,2.6-12.3,3.9
		c-3.9,1.2-7.8,2.6-11.7,3.8c-2.5,0.7-5.1,1.2-7.7,1.5c-6.9,0.7-13.4-0.6-19-3.7c-1.7-1.7-2.2-3.3-2.2-4.9s0.2-3.4,0.3-5
		c0.1-1.3,0.2-2.6,0.1-3.9c-0.1-2.4-1.1-4.4-3-5.7c-1.3-1-2.8-1.9-4.3-2.6c-1.7-0.8-3.4-1.4-5.2-2.1c-3.8-1.6-7.5-3.3-11.1-5.3
		c-3.3-1.9-5.4-4.5-6.2-8.2c-0.4-2.2-1-4.4-1.5-6.5c-0.4-1.7-1-3.2-2.1-4.6c-0.5-0.6-1.1-0.9-2-0.8c-2.1,1.1-1.7,3.5-2.6,5.8
		C1126.9,471.8,1126.1,473.3,1124.3,478.5z"/>
	<path class="st20" d="M926,1145.1c-0.4-1-0.9-2-1.2-3.2c-1.6-5.2-2.6-10.5-3.4-15.9c-0.9-6.9-1.8-13.8-2.6-20.6
		c-1.1-9.4-2.4-19-4-28.3c-2.2-13.1-3.6-26.3-4.1-39.6c-0.1-1.9-0.2-3.7-0.4-5.6c-0.3-3.4-0.7-6.7-1.6-10c-0.2-0.7-0.4-1.5-0.8-2.1
		c-0.3-0.4-0.9-0.6-1.3-0.8c-0.4-0.2-1,0.4-1.1,1c-0.4,1.3-0.1,2.6,0,3.9c0.4,4.1,0.9,8.2,1,12.3c0.5,15,2.2,29.8,4.4,44.6
		c1,6.9,2,13.7,2.7,20.6c1,8.7,2.3,17.5,3.6,26.1c0.7,4.6,1.7,9.2,3,13.7c0.6,2.1,1.4,4.2,2.3,6.4c0.5,1.4,1.6,2.5,2.9,3.4
		c1.2,0.8,3.2,0.6,4.1-0.4c0.7-0.8,1.4-1.8,2-2.6c0.9-1.2,1.7-2.5,2.6-3.7c0.1-0.1,0.4-0.2,0.5-0.2c0.3,0.2,0.7,0.4,0.7,0.7
		c0.1,0.7,0.1,1.5,0.1,2.2c0,2-0.1,4.1-0.1,6.2c0,0.9,0.2,1.9,0.4,2.7c0.3,0.9,1,1.6,1.9,1.9s1.9,0,2.6-0.7c0.5-0.5,1-1.1,1.4-1.7
		c0.7-0.9,0.8-2.1,1.9-2.6c0.7,0.1,0.9,0.5,1,1.1c0.2,3.2-0.4,6.4-1,9.4c-1.6,7.7-3.4,15.4-6,22.8c-1.5,4.2-3,8.5-4.5,12.7
		c-1.6,4.6-3.1,9.3-3.9,14c-0.1,0.4-0.3,1.1,0.4,1.3c0.3-0.3,0.6-0.4,0.7-0.8c1.5-3.4,3.3-6.7,5.4-9.8c0.6-0.9,1.1-1.9,1.8-2.9
		c4.3-7.9,7.5-16.3,10.1-24.9c1.1-3.6,1.9-7.2,2.6-10.9c0.6-2.7,1-5.6,1.1-8.4s-0.1-5.6-0.7-8.4c-0.3-1.1-0.7-2.1-1.2-3.1
		c-1.3-2.3-4.2-2.9-6.4-1.4c-0.9,0.6-1.7,1.4-2.6,2.1c-0.3-0.3-0.8-0.4-0.8-0.6c-0.1-1.3,0-2.6-0.1-3.9c-0.1-0.7-0.3-1.5-0.6-2.1
		c-0.6-1.4-2.6-1.9-3.8-1.1c-0.6,0.4-1.2,0.9-1.7,1.5c-1.6,1.9-3.1,3.8-4.6,5.6c-0.4,0.6-1.1,1.1-1.9,1.1
		C926.8,1146,926.2,1145.6,926,1145.1z"/>
	<path class="st20" d="M969.2,976.3c0.2,0.7,0.5,1.4,0.6,2.1c0.2,1.5,0.3,3,0.4,4.5c0.8,5.3,2.7,10.1,6.1,14.3
		c2.6,3.3,5.7,5.9,9,8.4c4.3,3.3,9.3,4.9,14.6,4.8c2.6,0,5.2-0.4,7.8-1c2.2-0.4,4.4-1,6.6-1.3c3.9-0.6,7.8-0.8,11.7-0.4
		c2.5,0.3,4.7,1.1,6.7,2.6c0.7,0.5,1.4,1.2,2.1,1.9c1.4,1.2,2.7,2.6,4.2,3.7c4.4,3.6,9.4,5.4,15.1,5.1c2.8-0.2,5.6-0.5,8.4-1
		c1.5-0.2,2.9-0.6,4.4-1c1.7-0.4,3.3-0.6,4.9-1c0.2-0.5,0.1-0.9-0.4-0.9c-2-0.3-4.1-0.4-6.2-0.6c-3.4-0.3-6.7-0.5-10.1-0.8
		c-4.5-0.4-8.2-2.4-11.2-5.8c-0.5-0.5-1-1.1-1.5-1.7c-1.1-1.2-2.4-2.4-3.5-3.5c-3.5-3.4-7.8-5-12.7-5.2c-4.9-0.2-9.7,0.3-14.5,1.6
		c-2,0.5-4,1.2-5.9,1.8c-2,0.5-4,1.1-6,1.2c-3.4,0.4-6.7-0.4-9.5-2.4c-2.5-1.7-4.8-3.7-6.8-5.8c-3.5-3.8-5.7-8.3-6.4-13.5
		c-0.3-2.2-0.3-4.5-0.2-6.7c0.2-2.4,0.5-4.9,0.9-7.2c0.4-2.2,0.9-4.4,1.2-6.6c0.3-2,0.5-4.1,0.5-6.2c0-2.6-0.6-5.2-2.2-7.4
		c-1.9-2.8-4.8-4.1-8.2-3.7c-0.8,0.1-1.3,0.5-1.6,1.3c0.2,1,1,1.6,1.7,2.1c2.5,1.9,3.4,4.4,3.3,7.4c-0.1,2-0.4,4.1-0.7,6.1
		c-0.8,4.2-1.6,8.5-1.9,12.8c-0.1,1-0.2,1.9-0.9,2.6L969.2,976.3z"/>
	<path class="st20" d="M1327.8,838.1c1.1,8.2,1.1,16.4,0.6,24.6c-0.2,2.6-0.4,5.2-0.8,7.8c-0.2,1.9-0.6,3.7-1.4,5.4
		c-1.9,4.2-5.1,6.9-10,7.1c-1.9,0.1-3.7-0.1-5.6-0.2c-3.7-0.3-7.5,0-11.2,0.5c-4.6,0.7-8,2.9-10.1,7.1c-0.9,1.9-1.8,3.7-2.7,5.6
		c-0.8,1.7-1.9,3.3-3.2,4.6c-1,1-2.1,1.6-3.4,1.7c-0.9,0.1-1.9,0.1-2.7-0.2c-5.3-1.4-9.5-4.1-12.1-9.2c-1.9-3.7-3.1-7.6-3.4-11.7
		c-0.1-2-0.2-4.1-0.2-6.2c-0.1-3.2-0.4-6.4-0.9-9.4c-0.4-2.4-1.1-4.8-2.1-7c-1.1-2.5-2.9-4.3-5.4-5.5c-1.1-0.5-2.1-0.6-3.3-0.4
		c-0.2,0-0.4,0.1-0.5,0.1c-0.5,0.1-1.1,0.8-1.1,1.1c0.2,0.4,0.4,0.8,0.6,0.9c3.1,1.3,4.5,3.8,5.2,6.9c0.4,1.5,0.5,2.9,0.6,4.4
		c0.2,3.2,0.2,6.4,0.3,9.5c0.1,2.8,0.1,5.6,0.3,8.4c0.4,5.3,2.3,10.2,5.4,14.6c3.9,5.6,9.4,9.1,16,10.7c3.2,0.8,6.4,0.3,9.2-1.4
		c2.6-1.4,4.5-3.4,5.6-6c1-2.2,1.9-4.4,2.8-6.7c0.5-1.4,1.1-2.7,2.1-4c0.9-1.1,1.9-1.9,3.2-2.1c1.7-0.3,3.4-0.4,5-0.5
		c2.6,0,5.2,0.2,7.9,0.2c1.7,0,3.4,0,5-0.2c2.5-0.3,4.7-1.2,6.6-2.8c2.7-2.4,4.8-5.3,5.6-8.8c0.3-1.1,0.4-2.2,0.6-3.3
		c1-8,1.3-16.1,0.7-24.1c-0.4-4.1-1-8.2-2.3-12.1c-0.1-0.3-0.4-0.5-0.8-0.9C1327.9,837.2,1327.7,837.7,1327.8,838.1z"/>
	<path class="st20" d="M1097.1,732.7c-0.8-2.7-1.9-5.2-3.5-7.6c-1.3-1.9-2.9-3.4-4.9-4.6c-3.4-2.2-7.9-1.6-10.8,1.4
		c-1.7,1.9-2.6,4.1-2.6,6.6c0.1,4.2,1.5,8.1,4.3,11.3c1,1.1,2.2,1.9,3.4,2.8c0.8,0.5,1.7,0.8,2.6,0.5c0.1-0.4,0.4-0.8,0.3-1
		c-0.7-1.5-1.5-3-2.2-4.5c-1.1-2.2-1.9-4.5-1.9-7c0-1.1,0.1-2.2,0.8-3.2c1.1-0.9,2.1-0.8,3,0c1,0.9,1.9,1.8,2.6,2.8
		c1.9,2.6,3.2,5.5,3.9,8.6c0.3,1.1,0.4,2.2,0.7,3.3c0.5,1.9,1.8,2.9,3.6,3c1,0,1.9,0,2.8,0c2.3-0.1,4,0.9,5.2,2.7
		c0.9,1.2,1.6,2.5,2.5,3.8c0.4,0.6,0.8,1.2,1.2,1.9c0.9,1.2,2.6,1.7,4.1,1.1c1-0.4,1.9-1.1,3-1.6c0.7-0.4,1.4-0.5,2.1-0.7
		c1-0.3,1.9,0.1,2.6,0.8c0.5,0.5,1,1.1,1.2,1.9c0.8,1.7,1.5,3.4,2.2,5.1c1,2.5,1.9,4.9,2.8,7.3c0.1,0.2,0.3,0.3,0.4,0.4
		c0.4-0.2,0.8-0.2,1-0.4c1.7-2.2,2.4-4.7,2.3-7.3c-0.2-3.8-1.3-7.3-3.3-10.6c-2-3.4-5.8-4.9-9.7-4.1c-1.2,0.4-2.5,1-3.7,1.3
		c-0.5,0.2-1.1,0.2-1.8,0.3c-0.4-0.6-0.9-1.2-1.3-1.8c-0.6-1-1.1-1.9-1.8-2.8c-1.8-2.3-4-3.9-7-4.1c-0.7-0.1-1.5-0.3-2.3-0.4
		C1097.8,735.9,1097.6,734.3,1097.1,732.7z"/>
	<path class="st20" d="M1168.2,986c2.6,2.6,5.9,4.6,9.1,6.5c5.2,3.1,10.8,4.1,16.7,3.5c3.4-0.4,6.5-1.4,9.7-2.7
		c4.9-2.1,8.2-5.8,10.3-10.6c0.8-1.9,1.3-3.9,1.9-5.8c0.4-1.8,0.7-3.7,1.1-5.5c0.4-1.6,0.9-3.3,1.4-4.9c0.5-1.4,1.6-2.6,2.8-3.4
		c2.6-1.8,5.5-2.5,8.6-2c2.2,0.4,4.4,0.9,6.5,1.4c2.7,0.6,5.5,1.3,8.2,1.9c0.5,0.1,1.1,0,1.7-0.1l0.3-0.4c0-0.2-0.1-0.4-0.3-0.4
		c-5.6-2.3-11.1-4.3-16.8-6.3c-0.7-0.3-1.5-0.4-2.2-0.4c-2.2-0.3-4.5-0.3-6.7,0.3c-3,0.7-5.5,2.2-7.4,4.7c-1.7,2.1-2.7,4.5-3.4,7.1
		c-0.5,2.2-1,4.4-1.4,6.5c-0.5,2.4-1.2,4.7-2.5,6.8c-0.7,1.1-1.5,2.2-2.6,2.9c-3.9,2.8-8.1,4.6-12.9,5c-2.3,0.2-4.5-0.1-6.6-0.9
		c-1.4-0.5-2.7-1.1-4.1-1.9c-1.7-0.8-3.4-1.8-4.9-2.6c-1.5-0.8-3.1-1.4-4.8-1.7c-1-0.2-1.9-0.1-2.5,0.8
		C1167.3,984.9,1167.7,985.5,1168.2,986z"/>
	<path class="st20" d="M911.3,662.9c-0.8-0.5-1.5-1.1-2.3-1.6c-5.9-3.5-32-18.9-39.2-22.9c-9.3-5.2-18.8-10.1-28.3-14.9
		c-7.1-3.6-14.4-7.1-21.6-10.7c-3.4-1.7-6.8-3.1-10.4-4.1c-1.2-0.4-2.6-0.4-3.9-0.6c-1.1-0.1-2.2,0.9-2.4,1.9
		c-0.2,1.1,0.4,1.8,1.1,2.4c0.4,0.4,1,0.6,1.4,0.9c1.9,0.8,3.8,1.7,5.6,2.4c6.8,2.7,13.4,5.6,20,8.8c18.8,9.2,71.9,34.9,79.7,38.7
		C911.2,663.1,911.3,663,911.3,662.9z"/>
	<path class="st20" d="M1441.9,693.7c0.4,0,0.8,0.2,1.1,0c1.2-0.5,2.4-1.1,3.5-1.6c23.1-11.5,46.1-23.1,68.7-35.6
		c10.6-5.9,21.2-11.8,31.8-17.9c3.3-1.9,6.4-4,9.4-6c0.8-0.5,1.3-1.2,1.9-1.9c0.6-0.7,0.4-1.9-0.2-2.6c-0.5-0.6-1.3-0.8-2-0.6
		c-1.5,0.3-2.7,1.2-4,1.9c-7.9,4.7-95.6,55.2-105.7,61.1C1444.8,691.5,1443,692.1,1441.9,693.7L1441.9,693.7z"/>
	<path class="st20" d="M883.4,740c-10.9-0.4-21.7-0.5-32.6-0.4c-13.1,0.3-26.1,1.1-39.2,1.9c-6.5,0.4-13.1,1-19.6,1.7
		c-3.4,0.4-6.7,0.9-10,1.6c-2,0.4-4,1.1-5.8,1.9c-0.9,0.4-1.6,1.1-2,1.9c-0.4,0.7-0.4,1.4,0,2.1c0.4,0.7,1.1,1.1,1.9,1.1
		c0.4,0,0.8,0,1.1-0.1c3.9-1.3,8-1.9,12.1-2.4c13.9-1.8,27.9-2.9,41.9-4c17.4-1.3,34.7-2.6,52.1-4c0.7-0.1,1.5,0,2.6-1
		C884.4,740.1,883.9,740,883.4,740z"/>
	<path class="st20" d="M1153.7,725.5c1.9,5.9,4.1,11.6,6.8,17.2c3.9,8.3,7.9,16.5,11.9,24.7c1.7,3.4,3.4,6.6,5.6,9.7
		c1.2,1.9,2.2,3.9,3,6c0.2,0.4,0.2,1,0.3,1.6c-0.4-0.2-0.9-0.3-1.1-0.4c-1.9-2.6-3.7-5.1-5.6-7.7c-0.5-0.7-1.1-1.5-1.8-2.1
		c-0.4-0.4-0.6-0.3-0.8,0.4c1.9,4.9,3.7,10,6,14.9c1.9,4.2,4.2,8.3,6.8,12.3c0.6,1,1.3,1.8,2.2,2.6c0.7,0.7,1.7,0.7,2.6,0
		c0.2-0.4,0.4-1,0.5-1.5c-0.2-0.7-0.4-1.4-0.6-2.1c-0.2-0.7-0.4-1.4-0.5-2.1c0-0.1,0.2-0.3,0.2-0.4c1-0.5,1.9-1.1,2.7-1.4
		c0.5-1.1,0.6-2,0.4-2.9c-0.4-1.1-0.8-2.1-1.3-3.1c-3.8-7.5-7.7-15-12.4-22c-3.5-5.3-6.6-10.9-9.4-16.5c-1.9-3.7-3.6-7.3-5.5-11
		c-3-6-6.1-12-9.8-18.4C1153.2,724.1,1153.5,724.8,1153.7,725.5z"/>
	<path class="st20" d="M1321.9,824.8c0-0.2-0.1-0.4-0.1-0.5c-0.2-0.4-0.4-0.6-0.6-1c-1.1-1.1-2.3-1.9-3.6-2.6
		c-2.6-1.1-5.3-1.9-8-2.4c-6.1-1.1-12.1-2.2-18.2-3.2c-6.6-1.1-13.4-1.4-20.1-1.4c-0.7,0-1.5-0.1-2.1,0.4c-0.2,0.6,0.3,1.1,0.8,1.1
		c7.9,2.6,16.1,5,24.3,6.6c2,0.4,4,0.9,6,1.4c0.4,0.1,1,0.5,0.4,1.2c-0.6,0.1-1.4,0.1-2.1,0.2c-3.2,0.3-6.4,0.4-9.4,1
		c-4.8,0.9-9.5,2-14.2,3.1c-0.2,0-0.3,0.2-0.4,0.3c-0.7,0.3,0.4-0.1-0.1,0.7c1.2,0,2.3-0.1,3.4-0.1c3.7,0,7.5-0.2,11.2-0.1
		c6,0.3,11.9,0.5,17.8,1.4c0.5,0.1,1.1,0.2,1.7,0.1c1.5-0.1,2.5-0.7,2.7-2.4c-0.3-0.8-0.4-1.7-0.8-2.6c0.5-0.1,1.1-0.4,1.6-0.4
		c1.7,0.2,3.4,0.5,4.9,0.8c1.1,0.2,2.2,0.3,3.4,0.3c0.8,0,1.4-0.4,1.9-1.1C1321.9,825.5,1322,825.2,1321.9,824.8z"/>
	<path class="st20" d="M1147.6,783.7c1.7,0.3,3.3,0.6,4.9,1.1c5.2,1.4,9.6,4.3,13,8.4c3.4,4.1,6.3,8.4,7.6,13.6
		c0,0.1,0.3,0.2,0.4,0.2c0.3-0.3,0.6-0.4,0.7-0.7c1.5-4.1,1.1-8.1-0.7-12c-1.2-2.7-2.9-5.2-4.8-7.6c-2.1-2.7-4.7-4.9-7.7-6.4
		c-4.1-2.3-8.6-3.8-13.1-4.6c-3-0.5-5.6-1.8-8-3.8c-1.1-1-2.4-1.8-3.7-2.5c-1.8-0.9-3.6-0.7-5.3,0.5c-1.7,1.2-2.4,3.4-1.8,5.5
		c0.4,1.4,1.1,2.7,2.7,3.8c0.6,0.1,1.6,0.1,3.2,0.3C1138.8,781.8,1143.1,783.1,1147.6,783.7z"/>
	<path class="st20" d="M1238,291.5c0,3.2-0.1,6.4,0.1,9.5c0.4,9,1,17.9,1.5,26.9c1.3,20.9,3.4,41.8,6.8,62.5
		c0.3,1.7,0.6,3.3,1.1,4.9c0.1,0.4,0.5,0.4,0.9,0.2c0.4-0.9,0.1-1.9,0.1-2.7c-0.7-10.5-5.7-95.1-6.1-98.7c-0.1-1.1-0.3-2.2-0.5-3.4
		c-0.4-1.2-1.1-1.9-2.5-1.7C1238.3,289.6,1238,290.5,1238,291.5z"/>
	<path class="st20" d="M1070.4,480.1c0-4.3-0.2-8.6-0.4-12.9c0-0.9-0.4-1.9-0.6-2.7c-0.1-0.3-0.5-0.5-0.9-0.6
		c-0.4-0.2-1.2,0.3-1.4,0.7c-0.8,1.9-1,4-1.1,6c-0.5,5.7-0.6,11.6-0.5,17.4c0.4,16.1,0.7,32.1,1.1,48.2c0.4,11.2,1.1,22.4,2.2,33.5
		c0.1,1.2-0.1,2.6,1.3,4.5C1070.3,572.1,1070.4,495.7,1070.4,480.1z"/>
	<path class="st20" d="M886.4,733c-18.6-1.9-37.3-3.2-56-3.5c-10.3-0.2-20.6-0.3-30.9,0.1c-4.7,0.2-9.4,0.8-13.9,1.9
		c-2.2,0.5-4.3,1.1-6.4,2.3c-0.4,0.3-0.8,0.8-1,1.2c-0.1,0.3,0.1,0.8,0.4,1c0.4,0.3,1.1,0.4,1.6,0.4c3.2-0.3,6.4-0.5,9.5-0.9
		c9.1-1.1,18.3-1.5,27.4-1.7c6.7-0.1,52.4,0.3,68.5,0.4c1.1,0,2.2,0,4.4-0.1C888.3,733,887.3,733.1,886.4,733z"/>
	<path class="st20" d="M801.9,690.2c4.9,0.5,9.7,0.9,14.5,1.5c4.7,0.5,9.3,1.1,13.9,1.8c4.6,0.6,9.3,1.3,13.9,2
		c4.8,0.8,9.5,1.7,14.3,2.6c4.6,0.9,9.1,2.1,13.7,3c0.2-0.9-0.4-1.1-0.8-1.3c-3.9-1.3-7.8-2.7-11.6-4c-9.4-3.1-18.9-5.8-28.6-7.9
		c-10.4-2.2-21-3.6-31.7-4.1c-2.4-0.1-4.9-0.1-7.2,0c-1.1,0-2.2,0.4-3.3,0.8c-0.9,0.4-1.5,1.1-1.8,2c-0.3,0.8,0,1.4,0.8,2.6
		C792.7,690.1,797.3,689.8,801.9,690.2z"/>
	<path class="st20" d="M1536.2,629.1c4.9-3,9.7-6.4,14.6-9.5c1.2-0.8,2.4-1.9,3.4-2.9c0.4-0.4,0.4-1,0.5-1.4c-0.6-0.8-1.3-1-2-0.6
		c-2.5,1.4-116.5,73.6-123.7,78.3c-0.8,0.5-1.7,0.9-2,2.6C1429.2,694.2,1501.7,650.2,1536.2,629.1z"/>
	<path class="st20" d="M1338.9,790.2c-0.8,0.6-1.3,1.4-1.3,2.4c0,0.9,0.1,1.9,0.4,2.7c0.5,1.6,1.6,3,2.7,4.1c1.9,2,3.9,4.1,5.8,6.1
		c1.2,1.4,2.5,2.8,3.5,4.3c0.7,1.1,1.2,2.3,1.6,3.5c0.7,2.5,0.3,4.9-1.4,6.9c-1.1,1.2-2.3,2.5-3.4,3.7c-2.4,2.4-4.7,4.8-7.1,7.2
		c-1.6,1.7-2.9,3.4-4,5.5c-0.6,1.1-1.2,2.3-1,3.6c0.4,0,0.8,0.2,1.1,0c3.4-2,6.7-4.1,9.6-6.7c1.9-1.8,4.1-3.4,6.1-5
		c1.9-1.6,3.5-3.4,5-5.3c2.3-3,3-6.4,2.6-10.1c-0.4-3.3-1.7-6.1-3.7-8.6c-1.6-2-3.4-4.1-5.5-5.6c-1.9-1.5-3.8-3.1-5.6-4.6
		c-1.2-1-2.2-2-2.6-3.5c-0.1-0.4-0.4-0.5-0.7-0.8C1340.3,789.8,1339.6,789.8,1338.9,790.2z"/>
	<path class="st20" d="M955.3,1174.3c1.1-2.2,27.5-59.7,33.7-73.2c0.3-0.5,0.2-0.7-0.4-0.5c-0.5,0.8-1.2,1.7-1.8,2.6
		c-5.2,9.9-10.4,19.9-15.2,30c-0.8,1.7-1.7,3.4-2.6,5c-0.3,0.4-0.8,0.7-1.6,1.4c0.4-2.7,1.1-4.9,1.7-7c4-13.9,14.4-49.3,15.4-53.3
		c0.2-0.6,0.5-1.3,0-1.9c-0.8,0.4-1,1.1-1.1,1.8c-5.8,16.4-10.9,33-16,49.6c-1.9,6.1-3.7,12.2-5.5,18.3c-0.9,2.8-1.8,5.7-1.8,8.7
		c0,1.3-0.6,2.6-1.1,3.7c-1.2,2.7-2.5,5.5-3.5,8.2c-0.9,2.2-1.9,4.5-1.9,7c0,0.3,0.3,0.5,0.5,1
		C954.6,1175.2,955,1174.8,955.3,1174.3z"/>
	<path class="st20" d="M1539.9,736.4c-1-0.1-1.9-0.2-2.8-0.1c-3.9,0.5-7.8,1.1-11.6,1.8c-13.4,2.6-26.8,5.1-40.2,7.8
		c-13.9,2.7-27.8,6-41.5,9.8c-1.8,0.5-3.5,1.1-5.3,1.8c-0.4,0.2-0.4,0.6,0,0.8c1.1,0.3,2.2-0.2,3.4-0.4
		c28.7-5.6,57.4-10.9,86.1-15.7c2.9-0.5,5.9-1.1,8.8-1.8c1.4-0.4,2.8-0.9,4.5-1.5C1541.1,737.3,1540.6,736.5,1539.9,736.4z"/>
	<path class="st20" d="M1403,994.9c0.5,0.5,1.1,1.1,1.7,1.5c4.8,4.5,23.6,22.9,27.7,27c4.9,4.8,10.1,9.5,15.1,14.3
		c1,0.9,1.9,1.9,2.7,2.7c3.4,3.2,6.9,6.3,10.4,9.4c0.7,0.6,1.5,1.1,2.4,1.4c0.7,0.4,1.5,0.2,2.1-0.4c0.7-0.5,0.9-1.9,0.4-2.6
		c-0.4-0.4-0.6-1-1-1.3c-1.7-1.8-3.4-3.5-5.2-5.1c-4.9-4.4-9.7-8.7-14.6-13.1c-7.4-6.8-15-13.4-22.7-20
		c-7.4-6.4-14.9-12.4-22.4-18.6c-2.6-2.1-5.3-4.1-7.9-6.3C1395.5,987.7,1399.5,991,1403,994.9z"/>
	<path class="st20" d="M1067.6,925.7c-0.8,1.7-1.5,3.4-2.2,5.1c-3.9,10-7.2,20-10.4,30.3c-3.2,10.2-6.4,20.4-9.4,30.5
		c-0.9,2.8-1.6,5.7-2.2,8.6c-0.3,1.2-0.3,2.6,0,3.9c0.2,0.8,1.1,1.8,1.9,1.8s1.5-0.4,1.9-1.1c0.4-0.6,0.7-1.3,1-2
		c0.7-2.3,16.9-63.4,19.4-73.2c0.4-1.4,0.6-2.9,1-4.5C1068.1,925.4,1067.7,925.4,1067.6,925.7z"/>
	<path class="st20" d="M1151,911.6c0.4,5.8,1.2,11.5,2.2,17.2c2.3,14,6.4,27.6,11.6,40.9c0.8,1.9,1.7,3.8,2.8,5.5
		c1,1.4,2.1,2.6,3.6,3.4c0.8,0.5,1.8,0.7,2.6,0.6c0.4,0,0.6-0.4,1.1-0.6c-0.4-1.1-0.9-2.3-1.2-3.3c0.1-1.3,1.7-1.2,1.5-2.4
		c-0.1-0.4-0.2-0.7-0.4-1.1c-0.4-0.8-1-1.6-1.5-2.4c-1.5-1.9-3-3.8-4.4-5.7c-2.1-2.9-3.7-6-4.9-9.4c-4.8-14.2-9.4-28.4-12.4-43.1
		c-0.1-0.4-0.4-0.9-0.7-1.9C1151,910.6,1150.9,911.1,1151,911.6z"/>
	<path class="st20" d="M1163,721.6c2.6,8.4,5.9,16.6,9.7,24.5c4.1,8.8,8.5,17.6,12.7,26.3c1.1,2.4,2.4,4.7,3.7,7
		c0.5,1,1.3,1.9,2,2.6c0.5,0.6,1.2,0.8,2,0.8c1-1.2,1.1-1.3,1.1-1.9c0-1.8-0.4-3.4-1.1-4.9c-1.3-2.9-2.6-5.8-4.1-8.6
		c-3.4-6.7-6.9-13.3-10.2-20c-4.8-9.5-10.1-18.8-16.2-28C1162.6,720.1,1162.8,720.9,1163,721.6z"/>
	<path class="st20" d="M1072.3,948.1c-0.4,0.6-0.8,1.2-1.1,1.9c-6.1,14.6-9.6,29.8-11.7,45.4c-0.2,1.3-0.2,2.6-0.1,3.9
		c0.1,0.7,0.4,1.4,0.8,2c1,1.5,3.3,1.6,4.3,0.2c0.4-0.6,0.9-1.2,1.1-1.9c0.4-1.6,0.6-3.3,0.9-4.9c1.9-15.2,4-30.4,6.7-45.4
		c0.1-0.4,0-0.7,0-1.5C1072.6,947.9,1072.4,947.9,1072.3,948.1z"/>
	<path class="st20" d="M1327.5,814c0.3-0.3,0.4-0.6,0.4-1s0-0.8-0.2-1.1c-0.3-0.5-0.5-1-0.9-1.4c-1.1-1.1-2.4-1.8-3.8-2.4
		c-3-1.2-6.1-1.9-9.3-2.2c-9.3-1-18.6-2-27.9-2.9c-5.4-0.5-10.9-0.6-16.2-0.4c-1.5,0.1-3,0.3-4.5,0.4c-0.5,0.1-0.6,0.4-0.3,0.9
		c0.4,0.1,1,0.4,1.5,0.4c7.4,1.1,33,4.5,38.4,5.3c7.2,1.1,14.5,2.1,21.4,5.1C1326.9,814.4,1327.3,814.3,1327.5,814z"/>
	<path class="st20" d="M1398.4,971.3c0.2,0.5,0.3,1.1,0.6,1.5c2.6,2.8,14.1,14.6,17.1,17.7c5.7,5.9,11.3,11.9,17.2,17.6
		c5.6,5.5,11.2,11,17.2,16.1c1.4,1.2,2.7,2.6,4.1,3.8c1.7,1.5,3.4,3,5.1,4.4c1.1,0.9,2.6,1.6,3.8,2.3c0.3,0.2,0.7,0.3,1.1,0.3
		c0.2,0,0.4,0,0.5-0.1c0.1-0.4,0.4-0.8,0.3-1c-1.9-2.8-4.4-5-6.9-7.3c-3-2.8-39.4-36.5-45.7-42.3c-0.3-0.3-0.5-0.5-0.8-0.8
		C1407.9,979.1,1403.1,975.2,1398.4,971.3L1398.4,971.3z"/>
	<path class="st20" d="M1059,545.4c-1.6-20.1-3.3-40.2-4.9-60.3c-0.3-3.2-0.6-6.4-1.1-9.4c-0.1-0.9-0.4-1.9-0.5-2.7
		c-0.1-0.5-0.4-1-1.1-1.1c-0.5-0.2-1.3,0.6-1.4,1.5c-0.1,1.3-0.3,2.6-0.3,3.9c0.2,4.3,0.3,8.6,0.7,12.9c1.1,11.3,2.2,22.7,3.5,34
		c0.8,7.1,1.9,14,3,21.1c0.3,1.9,0.7,3.7,1.1,5.5c0.1,0.3,0.4,0.5,1.1,1.2C1059.3,549.1,1059,547.2,1059,545.4z"/>
	<path class="st20" d="M1056.3,1095.9c-0.4,0.6-1,1.1-1.2,1.8c-6.5,15.4-13.3,30.9-19.4,46.6c-2.6,6.6-5,13.2-7.5,19.9
		c-0.7,1.9-1.4,3.9-1.6,5.9c0,0.5,0.1,1.1,0.3,1.6c0.1,0.3,0.7,0.5,0.9,0.4c0.4-0.2,1.1-0.5,1.2-1c1-2,1.9-4.1,2.6-6.2
		c6.7-17.6,13.3-35.3,19.6-53.1c1.9-5.3,3.7-10.6,5.6-16C1056,1096.3,1056.8,1095.3,1056.3,1095.9z"/>
	<path class="st20" d="M1083.3,1021.4c1.5,1.1,3,2.2,4.6,3.2c3.5,2.3,7.4,3.6,11.6,3.9c2.5,0.2,4.9,0.4,7.3,0.4
		c5.6,0.1,11.2-0.9,16.6-2.4c2.4-0.7,4.5-1.8,6.3-3.6c2.6-2.7,4.9-5.6,6.5-9.1c4-8.6,7.1-17.3,8.5-26.6c0-0.3-0.2-0.6-0.3-0.9
		c-1,0.5-1.3,1.4-1.7,2.2c-2.4,4.9-4.5,9.9-6.5,14.9c-1.8,4.3-3.4,8.7-5.6,12.9c-4.2,7.9-7.3,9.6-15.2,10.8
		c-0.4,0.1-0.7,0.1-1.1,0.1c-9.5,0.7-18.6-0.8-27.3-5c-1.7-0.8-3.4-1.6-5.1-2.4C1082.1,1020.7,1082.8,1021,1083.3,1021.4z"/>
	<path class="st20" d="M1218.8,1091.6c-0.4,1,0.3,1.9,0.6,2.6c1.9,4.1,15.4,32.8,20.1,43.2c1.5,3.2,3.1,6.4,4.8,9.5
		c1.6,3,3.4,5.8,6,8c0.5,0.4,1.2,0.8,2,1.3c0.2-0.7,0.4-1.3,0.4-1.8c-0.4-2-1.6-3.8-2.6-5.6c-3-5.8-13.2-25.8-15.4-29.9
		c-4.1-8.2-8.6-16.2-13.3-24c-0.8-1.3-1.5-2.6-2.8-3.4L1218.8,1091.6z"/>
	<path class="st20" d="M1141.4,723.6c2.3,5.9,4.8,11.7,7.6,17.5c4.1,8.2,8.1,16.4,12.3,24.6c0.8,1.7,1.7,3.4,2.6,4.9
		c0.6,1,1.3,1.9,2,2.6c0.5,0.5,1.2,0.9,2,0.6c0.7-0.3,1.3-1.3,1.1-2.3c-0.1-0.7-0.3-1.5-0.5-2.2c-0.4-1.1-0.9-2-1.4-3
		c-4.8-8.9-9.5-17.7-14.4-26.6c-3.2-5.9-6.8-11.6-10.5-17.2c-0.3-0.4-0.8-0.7-1.2-1.1C1140.8,722.3,1141.1,722.9,1141.4,723.6z"/>
	<path class="st20" d="M829.9,567.7c0.6,0.7,1.3,1.3,2,1.9c2.9,1.9,5.9,3.9,8.9,5.8c4.4,2.8,35.8,22.1,42,25.9
		c0.4,0.3,0.7,0.2,0.6-0.3c-0.4-0.4-0.6-0.8-1.1-1.1c-6.9-5.5-13.6-11.1-20.9-16c-4.5-3-8.9-6.2-13.5-9c-3.5-2.2-7-4.4-10.4-6.6
		c-1.6-1-3.3-1.9-4.9-2.6c-0.9-0.4-1.8-0.5-3-0.2C829.2,566.3,829.4,567.1,829.9,567.7z"/>
	<path class="st20" d="M1207.7,912.1c-3.1-5.6-5.9-11.2-8.2-17.1c-0.3-0.7-0.6-1.4-1-1.9c-0.3-0.4-0.6-0.3-0.8,0.2
		c0.1,0.4,0.1,1,0.2,1.5c1.4,5.6,3.2,11.1,5.3,16.5c3.1,8,7,15.6,12.1,22.7c1.4,1.9,3,3.8,4.5,5.6c1,1.1,2.4,1.9,4,1.9
		c0.5,0,1.1-0.3,1.5-0.5c0.2-0.2,0.2-0.6,0.4-1.1C1218.7,931.2,1213,921.8,1207.7,912.1z"/>
	<path class="st20" d="M1281.9,769.8c7.9,0.4,15.6,0.6,23.5,1.1c5.2,0.3,10.4,0.7,15.6,1.1c0.7,0.1,1.5,0.1,2.2,0.1
		c1.3,0,2.4-1.4,2-2.7c-0.1-0.5-0.4-1.1-0.7-1.5c-0.7-0.9-1.7-1.5-2.8-1.7c-1.7-0.3-3.3-0.6-4.9-0.7c-5-0.1-10.1-0.3-15.1-0.2
		c-6.5,0.2-13,1.2-19.3,2.8c-0.4,0.1-0.7,0.3-1,0.5c-0.3,0.3-0.3,0.6,0.1,0.9C1281.5,769.7,1281.7,769.8,1281.9,769.8z"/>
	<path class="st20" d="M1037.5,777c2.7,2.3,18.6,16.5,23.9,21.3c0.9,0.7,1.8,1.4,2.7,2c0.4,0.4,1,0.6,1.5,0.7c0.5,0.1,1.1,0,1.6-0.3
		c0.5-0.3,0.7-1.3,0.4-2c-0.4-0.6-0.6-1.4-1.1-1.9c-1.1-1.2-2.4-2.4-3.7-3.4c-9-7.3-18-14.6-27-21.9c-4.4-3.5-9-6.7-14-9.5
		C1027,766.9,1031.9,772.3,1037.5,777z"/>
	<path class="st20" d="M832.8,580.9c1.2,0.8,36.9,18.7,47.8,24.3c0.3,0.2,0.7,0.1,1,0.2c-0.1-0.9-0.8-1.2-1.4-1.7
		c-4.8-3.7-9.8-6.8-15-9.8c-6.9-4.1-13.9-7.9-20.9-11.8c-2.6-1.4-5.2-3-8-4c-0.9-0.3-1.8-0.5-2.7-0.6c-1.1-0.1-1.8,0.4-1.9,1.5
		C831.7,579.9,832.1,580.6,832.8,580.9z"/>
	<path class="st20" d="M1081.5,794.3c0.3-0.4,0.4-1.1,0.3-1.6c0-0.5-0.3-1.1-0.5-1.6c-0.7-1.1-1.4-2.2-2.3-3.2
		c-2.1-2.4-4.3-4.6-6.5-6.9c-3.1-3.3-6.4-6.4-9.4-9.6c-4.1-4.4-8.6-8.3-13.2-12.1c-0.4-0.4-1-0.4-1.8-0.8c0.4,0.8,0.5,1.3,0.8,1.7
		c2.9,4.1,6.1,8,9.4,11.8c5.8,6.6,11.6,13.1,17.5,19.7c1.1,1.2,2.2,2.6,3.7,3.3C1080.3,795.2,1081.1,795.1,1081.5,794.3z"/>
	<path class="st20" d="M1097.3,851.8c-1.1-1.9-2.6-3.1-4.2-4.4c-5.8-4.9-11.6-9.9-17.6-14.7c-7.7-6.3-15.4-12.4-23.2-18.4
		c-0.7-0.6-1.4-1.3-2.8-1.7c1.9,2.1,3.4,4,5.3,5.6c6.4,5.6,12.4,11.8,19,17.4c5.4,4.6,10.7,9.4,16.1,14c1.7,1.5,3.4,3,5.3,4.1
		c0.7,0.4,1.3,0.6,2.1,0.4C1097.9,853.2,1097.7,852.5,1097.3,851.8z"/>
	<path class="st20" d="M1004,1112c-1.7,3.4-3.3,6.7-4.9,10.1c-8.2,17.8-14.8,36.3-21.6,54.6c-0.6,1.8-1.1,3.5-1.5,5.4
		c-0.1,0.4,0.2,0.7,0.5,0.8c0.2,0,0.4-0.1,0.5-0.2c1.1-1.9,2.2-3.9,3.1-5.9c1.2-2.9,2.4-5.9,3.5-8.8c6.9-18.5,13.7-37.1,21.3-55.3
		c0.3-0.7,0.7-1.3,0.6-2.1C1004.7,1110.6,1004.3,1111.4,1004,1112z"/>
	<path class="st20" d="M1199.7,762.9c-1.4-2.8-15.9-31.6-21.7-43.1c-0.6-1.1-1.2-2.3-1.9-3.4c-0.1-0.2-0.5-0.1-1-0.2
		c0.3,0.8,0.4,1.5,0.8,2.2c1.4,3.3,13.2,28.3,17.6,37.6c0.7,1.5,1.3,3.1,1.9,4.7c0.1,0.3-0.1,0.5-0.2,0.9c-1.1-0.2-1.5-1.1-2.1-1.8
		c-0.6-0.7-1.1-1.5-2.1-1.8c2.8,4.9,5.4,8.9,8.3,12.5c0.4,0,0.8,0.1,1.1,0c0.7-0.3,1.1-1,1.2-1.9
		C1201.5,766.7,1200.6,764.8,1199.7,762.9z"/>
	<path class="st20" d="M937.1,905.2c-6.4,4.2-12.7,8.6-18.4,13.6c-1.8,1.6-3.5,3.4-5.1,5.1c-0.5,0.5-0.7,1.2-1.1,1.9
		c-0.2,0.4,0.1,1.3,0.5,1.5c0.4,0.2,0.7,0.3,1.1,0.2c0.5-0.2,1.1-0.4,1.5-0.7c3.1-2.6,6.2-5.4,9.3-8c5.9-5.1,11.7-10.3,17.9-15.3
		c1.6-1.2,3.2-2.6,4.8-3.9c0.4-0.3,0.5-0.7,1-1.5C944.2,900.2,940.6,902.8,937.1,905.2z"/>
	<path class="st20" d="M1127.4,725.5c4.3,10.8,9.5,21.1,14.8,31.4c0.3,0.5,0.5,1,0.9,1.4c0.8,1,1.8,1.4,2.9,0.7
		c0.5-0.6,0.6-1.4,0.4-2.1c-0.4-1.2-1-2.5-1.6-3.6c-1.9-3.6-3.9-7.2-5.8-10.9c-3.4-6.3-7.1-12.4-10.9-18.3c-0.3-0.4-0.7-0.8-1.1-1.2
		C1126.6,723.9,1127.2,724.7,1127.4,725.5z"/>
	<path class="st20" d="M1121.6,783.4c1.1-0.5,1.7-1.5,2-2.6c0.1-0.4,0.2-0.7,0.3-1.1c0.4-2.5,0-4.9-1-7.1c-1.1-2.6-3.4-4-6.2-3.8
		c-2.7,0.2-5,1.9-5.7,4.5c-0.3,1-0.1,1.9,0.6,2.5c1.4,0.7,2.6-0.6,4.1-0.4c0.3,0.3,0.9,0.6,1,1.1c0.4,1.2,0.5,2.6,0.8,3.8
		c0.3,1.1,0.7,2.1,1.7,2.9C1119.8,783.7,1120.7,783.9,1121.6,783.4z"/>
	<path class="st20" d="M1212.1,904.5c4.5,11.1,10,21.7,16.4,31.8c0.6,1,1.4,1.8,2.1,2.6c0.4,0.4,1,0.5,1.6,0.8
		c0.2-0.6,0.4-1.1,0.4-1.6c-0.3-1.5-1.2-2.7-2-4c-4.9-7.8-9.4-15.7-13.8-23.7c-1.3-2.5-2.6-4.9-4.1-7.3c-0.2-0.3-0.6-0.4-0.9-0.5
		C1211.4,903.2,1211.9,903.9,1212.1,904.5z"/>
	<path class="st20" d="M1047.6,512.2c-1.9-12.4-4.1-24.7-6.6-37c-0.1-0.5-0.4-1.1-0.6-1.6c-0.2-0.3-0.5-0.5-0.8-0.7
		c-0.4-0.3-1.2,0.1-1.3,0.5c-0.3,1.3-0.1,2.6,0.2,3.9c2.2,11.9,5.3,23.6,8.5,35.4c0,0.1,0.3,0.2,0.4,0.3
		C1047.4,512.7,1047.7,512.4,1047.6,512.2z"/>
	<path class="st20" d="M1109.9,684.8c2.8,6.3,5.7,12.5,9.1,18.6c2.1,3.7,4.3,7.4,6.5,11.1c0.4,0.8,1.2,1.4,1.9,2
		c0.1,0.1,0.4,0.2,0.5,0.1c0.2-0.3,0.5-0.6,0.4-0.9c-0.3-1.5-1.1-2.7-1.9-4c-4.6-8.3-9.2-16.7-13.8-25c-0.6-1.1-1.2-2.3-1.9-3.4
		c-0.2-0.3-0.6-0.4-1-0.5C1109.3,683.5,1109.6,684.1,1109.9,684.8z"/>
	<path class="st20" d="M1094,791.6c-4.4-5-8.9-10.1-13.4-15c-1.6-1.8-3.4-3.4-5.2-5c-0.3-0.2-0.7-0.3-1.2-0.4
		c0.3,0.6,0.4,1.1,0.8,1.5c5.6,7.4,11.6,14.5,17.9,21.4c0.5,0.5,1.1,1,1.8,1.3c0.4,0.3,1.1,0.1,1.3-0.5
		C1095.8,793.6,1094.9,792.6,1094,791.6z"/>
	<path class="st20" d="M1086.8,962.5c-0.3,0.3-0.5,0.5-0.6,0.9c-3.4,9.4-6.3,19.1-8,29c-0.2,1.1-0.3,2.2-0.3,3.4
		c0,0.4,0.3,0.7,0.7,0.5c0.2-0.1,0.4-0.2,0.4-0.4c0.2-0.5,0.4-1.1,0.5-1.6c2.5-10,5-19.9,7.5-29.8c0.2-0.7,0.3-1.4,0.4-2.2
		C1087,962.5,1086.8,962.5,1086.8,962.5z"/>
	<path class="st20" d="M1268.2,940.9c0.1,1.1,0.3,2.2,0.5,3.3c0.7,3.2,0.4,6.3-0.9,9.3c-0.6,1.5-1.3,3-1.7,4.6c0.4,0,0.6,0.1,0.7,0
		c3.2-1.8,4.9-4.6,5.1-8.1c0.2-3.2-0.4-6.3-2.1-9.1c-0.3-0.4-0.8-0.7-1.2-1.1C1268.4,940.3,1268.2,940.7,1268.2,940.9z"/>
	<path class="st20" d="M1208.4,400.5c0.5,3.4,0.6,3.7,2.5,5.6c-0.5-2.4-0.8-4.1-2.2-5.6H1208.4z"/>
	<path class="st20" d="M1398.2,971.4c-1-2.1-2.9-3.3-4.8-4.4c1.7,1.5,3.3,2.9,4.9,4.4H1398.2z"/>
	<path class="st20" d="M1241.5,1095.8c0.4-1.5-0.2-2.8-0.7-4.1c-0.3-0.7,0.3,0.4-0.4,0.2C1240.6,1094.3,1240.6,1094.3,1241.5,1095.8
		L1241.5,1095.8z"/>
	<path class="st20" d="M1218.8,1091.7c0-0.4,0.1-0.7,0-1.1c-0.5-1-1.1-1.9-1.7-2.7c-0.1-0.2-0.5-0.2-0.8-0.3
		C1216.8,1089.3,1217.4,1090.8,1218.8,1091.7L1218.8,1091.7z"/>
	<path class="st20" d="M1441.9,693.9c-1.7,0-3,0.9-4.1,1.9c-0.5,0.5,0.4-0.3,0.1,0.4c1.5-0.7,3.1-1.1,4.1-2.6L1441.9,693.9z"/>
</g>
</svg>
